<?xml version="1.0" encoding="UTF-8" standalone="no"?>
<!-- Created with Inkscape (http://www.inkscape.org/) -->
<svg id="svg2" xmlns:rdf="http://www.w3.org/1999/02/22-rdf-syntax-ns#" xmlns="http://www.w3.org/2000/svg" xml:space="preserve" height="320" viewBox="0 0 560 320.00001" width="560" version="1.1" xmlns:cc="http://creativecommons.org/ns#" xmlns:dc="http://purl.org/dc/elements/1.1/"><metadata id="metadata8"><rdf:RDF><cc:Work rdf:about=""><dc:format>image/svg+xml</dc:format><dc:type rdf:resource="http://purl.org/dc/dcmitype/StillImage"/><dc:title/></cc:Work></rdf:RDF></metadata><defs id="defs6"><clipPath id="clipPath18" clipPathUnits="userSpaceOnUse"><path id="path20" d="m0 2.6211h5120v1050h-5120v-1050z"/></clipPath></defs><g id="g10" transform="matrix(1.25,0,0,-1.25,0,320)"><g id="g12" transform="matrix(.084375 0 0 .084375 8 83.779)"><g id="g14"><g id="g16" clip-path="url(#clipPath18)"><g fill="#ed1c24"><path id="path22" d="m3150.6 0.011719c-70.4 4.2188-124.1 25.828-161.2 64.816-37.08 39.012-55.62 93.328-55.62 162.92 0 69.785 18.54 124.15 55.62 163.05 37.07 38.906 90.82 60.559 161.19 64.992v-455.77zm46.95 0v455.77c70.25-4.433 123.93-26.086 161.09-64.992 37.12-38.895 55.72-93.262 55.72-163.05 0-69.59-18.6-123.91-55.72-162.92-37.2-38.98-90.9-60.59-161.2-64.808"/><path id="path24" d="m3943.1 0.078125v455.77l168.47-0.028v-168.44h89.13v168.44l158.47 0.028v-455.77l-158.47-0.027344v168.07h-89.13v-168.07l-168.47 0.027344"/><path id="path26" d="m2239.3 0.019531h-168.45v455.79h168.45v-455.79zm228.09 0h-178.27l0.14 455.79h64.06c52.92 0 124.03-37.903 124.03-143.61 0 0.012-0.19-90.586-70.3-123.63 0 0 60.34-14.433 60.34-188.55"/><path id="path28" d="m2666.2 0.089844h-168.44v455.77h168.44v-455.77zm228.1 0h-178.28l0.14 455.77h64.06c52.92 0 124.04-37.902 124.04-143.6 0 0.012-0.19-90.594-70.31-123.63 0 0 60.35-14.422 60.35-188.54"/><path id="path30" d="m4398.6 0.039062 80.9 285.23h57.97l-30.46 97.531 20.63 72.937 179.98 0.079 118.3-455.78-199.3-0.028281-50 159.88h-29.76l49.83-159.88-198.1 0.027344"/><path id="path32" d="m3676 0.070312c-75.1 4.7305-132 26.442-170.8 65.176-38.81 38.723-58.23 92.91-58.23 162.56 0 69.836 19.42 124.02 58.23 162.55 38.8 38.524 95.76 60.34 170.81 65.489v-455.77zm16.99 455.77h180.99v-172.61l-180.99 172.61zm0-455.77 180.99 172.61v-172.61h-180.99"/><path id="path34" d="m1595.1 0.039062 80.89 285.22h57.97l-30.46 97.519 20.62 72.95 179.98 0.078 118.3-455.77-199.4-0.04-49.93 159.89h-29.76l49.9-159.89-198.1 0.039062"/><path id="path36" d="m1466.1 594.5h-158.33l-0.02 455.84 158.35-0.06v-455.78zm158.6 79.18-158.6 104 158.6 84.363v-188.37zm-158.6 376.6 158.6 0.06 0.02-158.54-158.62 158.48"/><path id="path38" d="m3784.8 594.5c-75.06 4.734-132.03 26.453-170.83 65.176-38.82 38.723-58.22 92.91-58.22 162.56 0 69.833 19.4 124.02 58.22 162.56 38.8 38.511 95.77 60.341 170.83 65.491v-455.78zm16.98 455.78h180.98v-172.61l-180.98 172.61zm0-455.78 180.98 172.62v-172.62h-180.98"/><path id="path40" d="m1624.8 594.54 80.89 285.22h57.97l-30.46 97.523 20.63 72.931 179.97 0.1 118.3-455.78-199.36-0.039-49.92 159.88h-29.75l49.82-159.88-198.09 0.039"/><path id="path42" d="m2248.5 594.5h-168.44v455.78h168.44v-455.78zm228.09 0h-178.26l0.14 455.78h64.05c52.93 0 124.03-37.9 124.03-143.59 0 0-0.19-90.602-70.3-123.63 0 0 60.34-14.438 60.34-188.55"/><path id="path44" d="m3128.5 594.56 80.88 285.23h57.97l-30.46 97.52 20.63 72.941 179.98 0.09 118.29-455.78-199.34-0.04-49.93 159.88h-29.75l49.82-159.88-198.09 0.04"/><path id="path46" d="m4226.7 594.56 80.89 285.22h57.97l-30.46 97.52 20.62 72.939 179.98 0.1 118.29-455.78-199.34-0.04-49.93 159.88h-29.75l49.83-159.88-198.1 0.04"/><path id="path48" d="m4022.6 594.5h177.09v455.8h-177.09v-455.8z"/><path id="path50" d="m4696.4 594.46 0.03 198.39 197.91-198.34-197.94-0.047zm376.49 267.03-168.58 188.79 168.63 0.02-0.05-188.81"/><path id="path52" d="m5084.2 629.89c-45.47-43.535-112.49-47.344-149.67-8.508l-233.96 244.47c-37.19 38.851-30.43 105.62 15.06 149.16 45.48 43.53 112.48 47.34 149.66 8.49l233.97-244.47c37.17-38.843 30.45-105.62-15.06-149.14"/><path id="path54" d="m2523.8 1050.2 190.06-455.72h188.96l-214.65 455.72h-164.37"/><path id="path56" d="m2618.5 594.5h-94.69v386.44l94.69-228.38v-158.06"/><path id="path58" d="m2926.1 594.5h164.4v455.71h-164.4v-455.71z"/><path id="path60" d="m2902.8 1009.2-94.25-165.91 51.37-108.9 42.97 97.832-0.09 176.98"/><path id="path62" d="m1206.6 1.1406h-1206.6l401.53 1050.4h467.26l337.81-1050.4"/></g><path id="path64" d="m171.39 129.7 136.4 387.92h144.34l-75.148 183.3 82.394 221.9 309.59 0.176 266.29-793.29-362.32-0.066-114.51 264.71h-182.25l127.87-264.71-332.65 0.066" fill="#fff"/></g></g></g></g></svg>
