<?xml version="1.0" encoding="UTF-8" standalone="no"?>
<!-- Created with Inkscape (http://www.inkscape.org/) -->

<svg
   xmlns:dc="http://purl.org/dc/elements/1.1/"
   xmlns:cc="http://creativecommons.org/ns#"
   xmlns:rdf="http://www.w3.org/1999/02/22-rdf-syntax-ns#"
   xmlns:svg="http://www.w3.org/2000/svg"
   xmlns="http://www.w3.org/2000/svg"
   xmlns:sodipodi="http://sodipodi.sourceforge.net/DTD/sodipodi-0.dtd"
   xmlns:inkscape="http://www.inkscape.org/namespaces/inkscape"
   id="svg2"
   version="1.1"
   inkscape:version="0.48.4 r9939"
   width="560"
   height="320"
   xml:space="preserve"
   sodipodi:docname="COCHEZ.eps"><metadata
     id="metadata8"><rdf:RDF><cc:Work
         rdf:about=""><dc:format>image/svg+xml</dc:format><dc:type
           rdf:resource="http://purl.org/dc/dcmitype/StillImage" /><dc:title></dc:title></cc:Work></rdf:RDF></metadata><defs
     id="defs6" /><sodipodi:namedview
     pagecolor="#ffffff"
     bordercolor="#666666"
     borderopacity="1"
     objecttolerance="10"
     gridtolerance="10"
     guidetolerance="10"
     inkscape:pageopacity="0"
     inkscape:pageshadow="2"
     inkscape:window-width="1920"
     inkscape:window-height="1025"
     id="namedview4"
     showgrid="false"
     inkscape:zoom="0.72618189"
     inkscape:cx="335.67421"
     inkscape:cy="-16.116715"
     inkscape:window-x="0"
     inkscape:window-y="30"
     inkscape:window-maximized="1"
     inkscape:current-layer="g10" /><g
     id="g10"
     inkscape:groupmode="layer"
     inkscape:label="ink_ext_XXXXXX"
     transform="matrix(1.25,0,0,-1.25,0,319.99999)"><g
       id="g12"
       transform="matrix(0.04198318,0,0,0.04211144,16,63.999992)"><path
         d="m 1560.84,323.949 50.22,0 38.45,-127.64 c 4.67,-15.957 8.96,-31.899 12.81,-47.918 3.88,-15.993 7.4,-32.77 10.59,-50.3402 0.33,2.2692 0.67,4.0702 0.82,5.3402 0.21,1.281 0.39,2.218 0.61,2.757 l 8.19,35.84 7.34,34.051 6.47,22.492 34.17,125.418 50.76,0 40,-312.9881 -55.71,0 -10.11,106.1171 c -0.43,5.371 -0.76,10.07 -1.03,13.961 -0.3,3.973 -0.43,7.191 -0.43,9.731 l -2.12,41.949 -1.4,38.5 c 0,0.25 -0.05,0.851 -0.15,1.73 -0.09,0.852 -0.24,2.039 -0.42,3.551 l -1.43,-6.301 c -1.52,-7.469 -2.85,-13.898 -4.09,-19.461 -1.25,-5.547 -2.31,-10.187 -3.25,-13.988 l -7.35,-28.559 -2.82,-10.711 -36.78,-136.5191 -39.54,0 -34.53,117.8591 c -4.7,15.539 -8.89,31.321 -12.57,47.309 -3.7,15.961 -7.04,32.781 -10.04,50.371 l -16.96,-215.5391 -55.51,0 35.81,312.9881"
         style="fill:#231f20;fill-opacity:1;fill-rule:nonzero;stroke:none"
         id="path14"
         inkscape:connector-curvature="0" /><path
         d="m 1775.39,317.211 c 1.39,-11.02 36.41,-285.4024 38.26,-299.5704 -9.95,0 -33.8,0 -41.99,0 -1.01,10.8008 -9.53,100.0784 -9.53,100.0784 0,0.019 -1.01,13.832 -1.01,13.832 l -0.42,9.219 -2.13,42.281 -1.36,38.39 c 0,-0.222 -0.21,2.239 -0.21,2.239 -0.03,0.218 -0.43,3.64 -0.43,3.64 l -13.23,0.61 -1.39,-6.25 c -0.04,-0.16 -4.13,-19.508 -4.13,-19.508 l -3.19,-13.813 -7.37,-28.437 -2.79,-10.711 c 0,0 -32.96,-122.3204 -35.42,-131.5704 -6.67,0 -22.85,0 -29.4,0 -2.58,8.9102 -33.08,113.0894 -33.08,113.0894 -0.06,0.059 -12.5,46.891 -12.5,46.891 l -9.98,50.039 -13.29,-0.672 c 0,0 -15.6,-197.6677 -16.51,-209.3474 -8.32,0 -31.93,0 -41.79,0 1.67,14.0078 33.08,288.4104 34.35,299.5704 8.25,0 32.2,0 39.27,0 2.67,-8.859 36.96,-122.871 36.96,-122.871 l 12.72,-47.52 10.49,-49.9802 13.29,0.1407 0.8,5.4105 0.33,1.578 8.34,36.57 7.35,34.07 6.4,22.063 c 0,0 30.32,111.406 32.83,120.539 7.23,0 31.56,0 39.76,0 z m 5.88,13.437 -55.92,0 -35.51,-130.367 -6.43,-22.39 -7.47,-34.442 c 0,0 -1.6,-7.039 -2.97,-13.051 -1.94,9.293 -4.1,19.602 -4.1,19.602 l -12.95,48.16 -39.82,132.488 -61.24,0 -37.38,-326.42925 69.25,0 c 0,0 9.04,115.25025 13.65,173.40225 0.06,-0.332 0.61,-3.012 0.61,-3.012 l 12.69,-47.73 35.9,-122.66025 49.76,0 38.15,141.53125 2.79,10.738 c 0,0 3.03,11.75 5.22,20.16 0.39,-8.707 1.79,-36.238 1.79,-36.238 0,0.36 0.45,-9.859 0.45,-9.859 l 0.98,-13.961 10.7,-112.37125 69.47,0 -41.67,326.42925 -5.95,0"
         style="fill:#231f20;fill-opacity:1;fill-rule:nonzero;stroke:none"
         id="path16"
         inkscape:connector-curvature="0" /><path
         d="m 1987.69,104.398 -12.96,49.852 c -8.62,33.898 -15.69,70.07 -21.09,108.578 -2.64,-18.758 -6.04,-37.777 -10.2,-57.019 -4.12,-19.239 -8.98,-39.731 -14.62,-61.27 l -10.69,-40.141 69.56,0 z m -56.05,219.551 45.61,0 93.22,-312.9881 -58.02,0 -16.33,60.8672 -86.18,0 -16.6,-60.8672 -56.29,0 94.59,312.9881"
         style="fill:#231f20;fill-opacity:1;fill-rule:nonzero;stroke:none"
         id="path18"
         inkscape:connector-curvature="0" /><path
         d="m 1972.24,317.211 c 2.7,-9.051 84.43,-283.461 89.19,-299.5704 -11.5,0 -36.72,0 -43.82,0 -2.25,8.4297 -16.33,60.9297 -16.33,60.9297 l -96.44,0 c 0,0 -14.32,-52.5312 -16.63,-60.9297 -6.97,0 -30.77,0 -42.12,0 4.86,16.168 87.86,290.5504 90.56,299.5704 6.94,0 28.61,0 35.59,0 z m 5.01,13.437 -50.59,0 -98.68,-326.42925 70.49,0 c 0,0 14.39,52.56255 16.63,60.91015 8.53,0 67.31,0 75.87,0 2.24,-8.4101 16.32,-60.91015 16.32,-60.91015 l 72.16,0 -97.16,326.42925 -5.04,0"
         style="fill:#231f20;fill-opacity:1;fill-rule:nonzero;stroke:none"
         id="path20"
         inkscape:connector-curvature="0" /><path
         d="m 1935.31,142.809 c 0.03,0 14.72,61.582 14.72,61.582 1.4,6.328 2.18,12.578 3.4,18.929 4.28,-24.492 9.1,-48.371 14.78,-70.742 0,0 7.73,-29.828 10.77,-41.449 -11.38,0 -40.66,0 -52.1,0 2.82,10.562 8.43,31.68 8.43,31.68 z m 11.62,120.961 c -2.61,-18.54 -5.97,-37.598 -10.01,-56.559 l -14.57,-61 -12.98,-48.5196 87,0 -15.14,58.2306 c -8.5,33.5 -15.58,69.789 -20.98,107.848 l -13.32,0"
         style="fill:#231f20;fill-opacity:1;fill-rule:nonzero;stroke:none"
         id="path22"
         inkscape:connector-curvature="0" /><path
         d="m 2060.73,323.949 190.94,0 0,-36.777 -65.55,0 0,-276.2111 -57.84,0 0,276.2111 -67.55,0 0,36.777"
         style="fill:#231f20;fill-opacity:1;fill-rule:nonzero;stroke:none"
         id="path24"
         inkscape:connector-curvature="0" /><path
         d="m 2244.96,317.211 c 0,-6.949 0,-16.332 0,-23.332 -10.83,0 -65.64,0 -65.64,0 0,0 0,-263.4688 0,-276.2384 -9.1,0 -35.2,0 -44.3,0 0,12.7696 0,276.2384 0,276.2384 0,0 -56.69,0 -67.61,0 0,7 0,16.383 0,23.332 12.07,0 165.47,0 177.55,0 z m 6.71,13.437 -197.68,0 0,-50.187 c 0,0 56.66,0 67.58,0 0,-12.801 0,-276.24225 0,-276.24225 l 71.23,0 c 0,0 0,263.44125 0,276.24225 10.83,0 65.6,0 65.6,0 l 0,50.187 -6.73,0"
         style="fill:#231f20;fill-opacity:1;fill-rule:nonzero;stroke:none"
         id="path26"
         inkscape:connector-curvature="0" /><path
         d="m 2284.2,323.949 155.95,0 0,-34.687 -97.11,0 0,-100.813 86.15,0 0,-34.687 -86.15,0 0,-108.1839 97.11,0 0,-34.6172 -155.95,0 0,312.9881"
         style="fill:#231f20;fill-opacity:1;fill-rule:nonzero;stroke:none"
         id="path28"
         inkscape:connector-curvature="0" /><path
         d="m 2433.44,317.211 c 0,-6.652 0,-14.563 0,-21.211 -11.62,0 -97.17,0 -97.17,0 l 0,-114.25 c 0,0 74.77,0 86.19,0 0,-6.648 0,-14.602 0,-21.281 -11.42,0 -86.19,0 -86.19,0 l 0,-121.6174 c 0,0 85.55,0 97.17,0 0,-6.5899 0,-14.543 0,-21.211 -11.72,0 -130.76,0 -142.54,0 0,12.5899 0,286.9374 0,299.5704 11.78,0 130.82,0 142.54,0 z m 6.71,13.437 -162.66,0 0,-326.42925 169.39,0 0,48.10155 c 0,0 -85.45,0 -97.1,0 0,11.0508 0,83.6997 0,94.7387 11.38,0 86.12,0 86.12,0 l 0,48.101 c 0,0 -74.74,0 -86.12,0 0,10.899 0,76.5 0,87.391 11.65,0 97.1,0 97.1,0 l 0,48.097 -6.73,0"
         style="fill:#231f20;fill-opacity:1;fill-rule:nonzero;stroke:none"
         id="path30"
         inkscape:connector-curvature="0" /><path
         d="m 2552.61,185.352 c 22.63,0 38.63,3.769 47.98,11.359 9.34,7.519 13.95,20.328 13.95,38.289 0,9.68 -0.94,18 -2.91,24.879 -1.97,6.93 -5.04,12.5 -9.22,16.82 -4.19,4.313 -9.69,7.52 -16.27,9.52 -6.68,2.011 -14.57,3.043 -23.73,3.043 l -9.8,0 0,-103.91 z m -58.81,138.597 76.99,0 c 31.8,0 55.46,-5.527 71.04,-16.418 19.66,-14.242 29.46,-35.929 29.46,-65.101 0,-22.418 -5.16,-40.45 -15.54,-54.071 -10.34,-13.539 -25.15,-21.937 -44.33,-25.187 l 79.6,-152.2111 -59.18,0 -79.23,153.1171 0,-153.1171 -58.81,0 0,312.9881"
         style="fill:#231f20;fill-opacity:1;fill-rule:nonzero;stroke:none"
         id="path32"
         inkscape:connector-curvature="0" /><path
         d="m 2570.79,317.211 c 30.19,0 52.83,-5.102 67.15,-15.211 17.93,-12.891 26.64,-32.398 26.64,-59.57 0,-20.782 -4.73,-37.621 -14.17,-49.942 -9.35,-12.289 -22.51,-19.726 -40.12,-22.668 l -9.13,-1.55 c 0,0 69.74,-133.4419 78.75,-150.6294 -13.38,0 -38.3,0 -43.97,0 -3.58,6.9414 -77.36,149.5074 -77.36,149.5074 l -12.68,-3.07 c 0,0 0,-134.1288 0,-146.4374 -9.16,0 -36.17,0 -45.4,0 0,12.5899 0,286.9374 0,299.5704 11.2,0 70.29,0 70.29,0 z m -76.99,13.437 -6.71,0 0,-326.42925 72.23,0 c 0,0 0,95.14065 0,132.22225 17.96,-34.589 68.45,-132.22225 68.45,-132.22225 l 74.32,0 c 0,0 -73.65,140.90225 -80.75,154.55125 16.6,4.429 30.11,12.839 39.75,25.558 11.26,14.711 16.94,34.281 16.94,58.102 0,31.32 -10.84,55.05 -32.29,70.531 -16.69,11.777 -41.88,17.687 -74.95,17.687 l -76.99,0"
         style="fill:#231f20;fill-opacity:1;fill-rule:nonzero;stroke:none"
         id="path34"
         inkscape:connector-curvature="0" /><path
         d="m 2562.41,282.551 c 8.43,0 15.75,-0.91 21.73,-2.731 5.55,-1.718 10.04,-4.3 13.41,-7.8 3.4,-3.508 5.98,-8.219 7.59,-13.981 1.82,-6.25 2.73,-14.027 2.73,-23.039 0,-15.781 -3.86,-26.91 -11.5,-33.078 -7.2,-5.801 -19.79,-8.883 -37.05,-9.563 0,11.321 0,79.27 0,90.192 1.33,0 3.09,0 3.09,0 z m -9.8,13.449 -6.71,0 0,-117.352 6.71,0 c 24.46,0 41.51,4.153 52.13,12.813 11.02,8.848 16.6,23.48 16.6,43.539 0,10.281 -1.09,19.301 -3.24,26.738 -2.25,7.922 -5.92,14.532 -10.9,19.633 -4.98,5.16 -11.41,8.949 -19.09,11.289 -7.28,2.238 -15.9,3.34 -25.7,3.34 l -9.8,0"
         style="fill:#231f20;fill-opacity:1;fill-rule:nonzero;stroke:none"
         id="path36"
         inkscape:connector-curvature="0" /><path
         d="m 2736.93,10.9609 58.8086,0 0,312.988 -58.8086,0 0,-312.988 z"
         style="fill:#231f20;fill-opacity:1;fill-rule:nonzero;stroke:none"
         id="path38"
         inkscape:connector-curvature="0" /><path
         d="m 2789.03,317.211 c 0,-12.633 0,-286.9805 0,-299.5704 -9.22,0 -36.23,0 -45.36,0 0,12.5899 0,286.9374 0,299.5704 9.13,0 36.14,0 45.36,0 z m 6.71,13.437 -65.52,0 0,-326.42925 72.23,0 0,326.42925 -6.71,0"
         style="fill:#231f20;fill-opacity:1;fill-rule:nonzero;stroke:none"
         id="path40"
         inkscape:connector-curvature="0" /><path
         d="m 2980.42,104.398 -12.92,49.852 c -8.62,33.898 -15.66,70.07 -21.12,108.578 -2.64,-18.758 -6.04,-37.777 -10.14,-57.019 -4.16,-19.239 -9.01,-39.731 -14.63,-61.27 l -10.71,-40.141 69.52,0 z m -56.04,219.551 45.63,0 93.2,-312.9881 -58,0 -16.32,60.8672 -86.15,0 -16.66,-60.8672 -56.26,0 94.56,312.9881"
         style="fill:#231f20;fill-opacity:1;fill-rule:nonzero;stroke:none"
         id="path42"
         inkscape:connector-curvature="0" /><path
         d="m 2965.01,317.211 c 2.67,-9.051 84.42,-283.461 89.18,-299.5704 -11.49,0 -36.74,0 -43.81,0 -2.28,8.4297 -16.33,60.9297 -16.33,60.9297 l -96.44,0 c 0,0 -14.35,-52.5312 -16.66,-60.9297 -6.95,0 -30.74,0 -42.09,0 4.86,16.168 87.85,290.5504 90.52,299.5704 6.95,0 28.65,0 35.63,0 z m 5,13.437 -50.58,0 -98.72,-326.42925 70.53,0 c 0,0 14.35,52.56255 16.63,60.91015 8.49,0 67.36,0 75.86,0 2.25,-8.4101 16.36,-60.91015 16.36,-60.91015 l 72.13,0 -97.2,326.42925 -5.01,0"
         style="fill:#231f20;fill-opacity:1;fill-rule:nonzero;stroke:none"
         id="path44"
         inkscape:connector-curvature="0" /><path
         d="m 2928.08,142.809 14.68,61.582 c 1.4,6.328 2.19,12.578 3.4,18.929 4.28,-24.492 9.11,-48.371 14.81,-70.742 0,0 7.74,-29.828 10.77,-41.449 -11.4,0 -40.66,0 -52.13,0 2.85,10.562 8.47,31.68 8.47,31.68 z m 11.59,120.961 c -2.58,-18.54 -5.98,-37.598 -10.02,-56.559 l -14.56,-61 -12.96,-48.5196 86.97,0 -15.14,58.2306 c -8.5,33.5 -15.57,69.789 -20.97,107.848 l -13.32,0"
         style="fill:#231f20;fill-opacity:1;fill-rule:nonzero;stroke:none"
         id="path46"
         inkscape:connector-curvature="0" /><path
         d="m 3097.8,323.949 58.84,0 0,-278.3709 95.71,0 0,-34.6172 -154.55,0 0,312.9881"
         style="fill:#231f20;fill-opacity:1;fill-rule:nonzero;stroke:none"
         id="path48"
         inkscape:connector-curvature="0" /><path
         d="m 3149.9,317.211 c 0,-12.813 0,-278.3594 0,-278.3594 0,0 84.06,0 95.74,0 0,-6.5899 0,-14.543 0,-21.211 -11.73,0 -129.36,0 -141.13,0 0,12.5899 0,286.9374 0,299.5704 9.16,0 36.23,0 45.39,0 z m 6.74,13.437 -65.58,0 0,-326.42925 168,0 0,48.10155 c 0,0 -84.12,0 -95.74,0 0,12.8086 0,278.3277 0,278.3277 l -6.68,0"
         style="fill:#231f20;fill-opacity:1;fill-rule:nonzero;stroke:none"
         id="path50"
         inkscape:connector-curvature="0" /><path
         d="m 3288.77,323.949 156.01,0 0,-34.687 -97.2,0 0,-100.813 86.18,0 0,-34.687 -86.18,0 0,-108.1839 97.2,0 0,-34.6172 -156.01,0 0,312.9881"
         style="fill:#231f20;fill-opacity:1;fill-rule:nonzero;stroke:none"
         id="path52"
         inkscape:connector-curvature="0" /><path
         d="m 3438.01,317.211 c 0,-6.652 0,-14.563 0,-21.211 -11.62,0 -97.11,0 -97.11,0 l 0,-114.25 c 0,0 74.72,0 86.15,0 0,-6.648 0,-14.602 0,-21.281 -11.43,0 -86.15,0 -86.15,0 l 0,-121.6174 c 0,0 85.49,0 97.11,0 0,-6.5899 0,-14.543 0,-21.211 -11.71,0 -130.76,0 -142.47,0 0,12.5899 0,286.9374 0,299.5704 11.71,0 130.76,0 142.47,0 z m 6.77,13.437 -162.72,0 0,-326.42925 169.42,0 0,48.10155 c 0,0 -85.51,0 -97.1,0 0,11.0508 0,83.6997 0,94.7387 11.37,0 86.09,0 86.09,0 l 0,48.101 c 0,0 -74.72,0 -86.09,0 0,10.899 0,76.5 0,87.391 11.59,0 97.1,0 97.1,0 l 0,48.097 -6.7,0"
         style="fill:#231f20;fill-opacity:1;fill-rule:nonzero;stroke:none"
         id="path54"
         inkscape:connector-curvature="0" /><path
         d="m 3643.03,317.48 0,-40.91 c -17.84,9.168 -33.87,13.782 -48.2,13.782 -15.38,0 -27.95,-3.973 -37.68,-11.832 -9.78,-7.442 -14.66,-17.399 -14.66,-29.872 0,-10.937 3.49,-20.359 10.47,-28.207 3.55,-4.191 9.47,-9.632 17.67,-16.269 8.16,-6.621 18.8,-14.633 31.76,-23.942 23.98,-17.511 40.25,-32.621 48.95,-45.308 8.68,-12.352 12.99,-27.461 12.99,-45.3126 0,-24.2383 -9.5,-44.1797 -28.59,-59.9297 -19.08,-15.2891 -43.45,-22.94142 -73.1,-22.94142 -24.97,0 -46.24,4.88282 -63.91,14.72262 l 0,41.5977 c 20.82,-10.918 39.76,-16.418 56.84,-16.418 15.96,0 28.49,3.8282 37.45,11.4805 9.04,7.6406 13.56,18.0508 13.56,31.1602 0,11.3477 -3.45,21.6407 -10.47,30.6797 -3.58,4.34 -8.58,9.289 -14.99,14.898 -6.4,5.68 -14.44,11.93 -24,18.84 -14.9,10.531 -27.26,19.879 -37.05,27.981 -9.81,8.14 -17.06,15.23 -21.76,21.34 -9.07,11.921 -13.56,26.91 -13.56,45.101 0,24.508 8.85,43.93 26.61,58.258 17.93,14.5 41.93,21.762 71.98,21.762 20.81,0 40.69,-3.563 59.69,-10.661"
         style="fill:#231f20;fill-opacity:1;fill-rule:nonzero;stroke:none"
         id="path56"
         inkscape:connector-curvature="0" /><path
         d="m 3597.38,52.9609 c 10.57,8.9688 15.91,21.211 15.91,36.3204 0,12.7967 -4,24.5197 -11.83,34.7697 -0.16,0.219 -15.9,15.879 -15.9,15.879 l -24.52,19.199 c -14.69,10.41 -27.05,19.73 -36.69,27.75 -9.38,7.793 -16.33,14.59 -20.7,20.262 -8.1,10.589 -12.2,24.398 -12.2,40.98 0,22.559 7.92,39.93 24.1,53.059 16.63,13.422 39.47,20.25 67.79,20.25 18.36,0 36.07,-3.282 52.98,-9.078 0,-5.641 0,-16.352 0,-25.821 -14.89,6.43 -28.92,10.5 -41.49,10.5 -16.83,0 -30.94,-4.461 -41.9,-13.23 -11.35,-8.653 -17.15,-20.492 -17.15,-35.153 0,-12.609 4.1,-23.597 12.17,-32.668 3.8,-4.5 9.86,-10.109 18.46,-17 l 32.1,-24.242 c 23.15,-16.879 39.06,-31.539 47.28,-43.617 7.89,-11.191 11.87,-25.18 11.87,-41.5116 0,-22.2891 -8.63,-40.2578 -26.2,-54.7383 -17.69,-14.1797 -40.87,-21.4219 -68.82,-21.4219 -22.15,0 -41.24,4.25 -57.2,12.2813 0,4.9179 0,16.5976 0,26.7383 17.97,-8.1602 34.86,-12.5586 50.13,-12.5586 17.54,0 31.62,4.3984 41.81,13.0507 z m -90.24,258.6871 c -19.37,-15.648 -29.13,-36.988 -29.13,-63.527 0,-19.582 5.04,-36.16 14.93,-49.141 5.1,-6.621 12.53,-13.96 22.81,-22.46 9.93,-8.219 22.52,-17.75 37.48,-28.34 l 23.46,-18.328 14.27,-14.204 c 5.94,-7.738 8.88,-16.4488 8.88,-26.3667 0,-11.1915 -3.61,-19.6993 -11.13,-26.043 -7.74,-6.5469 -18.88,-9.8867 -33.14,-9.8867 -15.87,0 -33.93,5.2773 -53.71,15.6289 l -9.84,5.1914 0,-56.6914 3.44,-1.9414 C 3514.02,5.23047 3536.66,0 3562.64,0 c 31.11,0 57.09,8.21875 77.32,24.3984 20.67,17.0821 31.1,39 31.1,65.211 0,19.1796 -4.82,35.6916 -14.19,49.1916 -9.14,13.418 -25.74,28.738 -50.47,46.847 -0.06,0 -31.53,23.774 -31.53,23.774 -7.8,6.277 -13.47,11.437 -16.78,15.359 -6.01,6.758 -8.86,14.528 -8.86,23.867 0,10.352 3.91,18.391 11.95,24.524 8.65,6.93 19.97,10.406 33.65,10.406 13.12,0 28.3,-4.359 45.13,-13.008 l 9.78,-5.039 0,56.59 -4.38,1.641 c -19.63,7.34 -40.51,11.066 -62.02,11.066 -31.5,0 -57.15,-7.789 -76.2,-23.18"
         style="fill:#231f20;fill-opacity:1;fill-rule:nonzero;stroke:none"
         id="path58"
         inkscape:connector-curvature="0" /><path
         d="m 3799.46,135.922 102.898,0 0,31.5 -102.898,0 0,-31.5 z"
         style="fill:#231f20;fill-opacity:1;fill-rule:nonzero;stroke:none"
         id="path60"
         inkscape:connector-curvature="0" /><path
         d="m 3895.68,160.711 c 0,-6.031 0,-12.012 0,-18.082 -10.94,0 -78.59,0 -89.51,0 0,6.07 0,12.051 0,18.082 10.92,0 78.57,0 89.51,0 z m 6.68,13.449 -109.61,0 0,-44.941 116.35,0 0,44.941 -6.74,0"
         style="fill:#231f20;fill-opacity:1;fill-rule:nonzero;stroke:none"
         id="path62"
         inkscape:connector-curvature="0" /><path
         d="m 4172.93,104.398 -12.96,49.852 c -8.65,33.898 -15.69,70.07 -21.12,108.578 -2.61,-18.758 -6.01,-37.777 -10.17,-57.019 -4.09,-19.239 -8.98,-39.731 -14.6,-61.27 l -10.7,-40.141 69.55,0 z m -56.02,219.551 45.61,0 93.16,-312.9881 -57.99,0 -16.32,60.8672 -86.16,0 -16.6,-60.8672 -56.35,0 94.65,312.9881"
         style="fill:#231f20;fill-opacity:1;fill-rule:nonzero;stroke:none"
         id="path64"
         inkscape:connector-curvature="0" /><path
         d="m 4157.45,317.211 c 2.76,-9.051 84.43,-283.461 89.25,-299.5704 -11.53,0 -36.72,0 -43.85,0 -2.24,8.4297 -16.33,60.9297 -16.33,60.9297 l -96.43,0 c 0,0 -14.3,-52.5312 -16.63,-60.9297 -6.99,0 -30.75,0 -42.12,0 4.88,16.168 87.78,290.5504 90.57,299.5704 6.93,0 28.62,0 35.54,0 z m 5.07,13.437 -50.62,0 -98.69,-326.42925 70.53,0 c 0,0 14.36,52.56255 16.6,60.91015 8.5,0 67.31,0 75.89,0 2.25,-8.4101 16.3,-60.91015 16.3,-60.91015 l 72.2,0 -97.23,326.42925 -4.98,0"
         style="fill:#231f20;fill-opacity:1;fill-rule:nonzero;stroke:none"
         id="path66"
         inkscape:connector-curvature="0" /><path
         d="m 4120.59,142.809 14.71,61.582 c 1.33,6.328 2.18,12.578 3.37,18.929 4.31,-24.492 9.13,-48.371 14.78,-70.742 0,0 7.73,-29.828 10.77,-41.449 -11.38,0 -40.64,0 -52.1,0 2.78,10.562 8.47,31.68 8.47,31.68 z m 11.62,120.961 c -2.62,-18.54 -5.99,-37.598 -10.08,-56.559 l -14.57,-61 -12.95,-48.5196 87.03,0 -15.15,58.2306 c -8.52,33.5 -15.62,69.789 -20.96,107.848 l -13.32,0"
         style="fill:#231f20;fill-opacity:1;fill-rule:nonzero;stroke:none"
         id="path68"
         inkscape:connector-curvature="0" /><path
         d="m 4457.02,318.91 0,-37.539 c -15.02,5.219 -27.55,7.891 -37.68,7.891 -13.96,0 -25.85,-2.492 -35.81,-7.434 -9.93,-4.93 -18.18,-12.539 -24.61,-22.848 -6.47,-10.3 -11.29,-23.32 -14.39,-39.089 -3.09,-15.782 -4.58,-34.469 -4.58,-56.02 0,-77.4413 27.46,-116.1913 82.45,-116.1913 9.56,0 21.13,2.1484 34.62,6.4922 l 0,-38.8828 c -14.07,-5.69926 -29.85,-8.55082 -47.3,-8.55082 -87.83,0 -131.8,51.83202 -131.8,155.43372 0,55.976 10.71,97.648 32.11,124.969 21.43,27.328 54.29,41 98.56,41 16.33,0 32.5,-3.071 48.43,-9.231"
         style="fill:#231f20;fill-opacity:1;fill-rule:nonzero;stroke:none"
         id="path70"
         inkscape:connector-curvature="0" /><path
         d="m 4284.66,162.172 c 0,54.199 10.32,94.828 30.68,120.808 19.97,25.489 51.35,38.45 93.25,38.45 14.03,0 27.95,-2.801 41.7,-7.532 0,-5.519 0,-15.078 0,-23.609 -11.75,3.52 -22.27,5.711 -30.95,5.711 -14.91,0 -27.92,-2.738 -38.78,-8.141 -11.05,-5.461 -20.25,-14.019 -27.35,-25.269 -6.88,-10.988 -12.02,-24.918 -15.26,-41.399 -3.18,-16.14 -4.8,-35.41 -4.8,-57.32 0,-81.5702 30.04,-122.9022 89.25,-122.9022 7.98,0 17.57,1.8203 27.89,4.5507 0,-8.7109 0,-19.539 0,-25.2187 -12.2,-4.3008 -25.7,-6.8516 -40.57,-6.8516 -84.15,0 -125.06,48.6406 -125.06,148.7228 z m 20.15,129.117 C 4282.54,262.859 4271.25,219.43 4271.25,162.172 4271.25,54.5586 4317.8,0 4409.72,0 c 18.27,0 35.02,3.03906 49.85,9.03906 l 4.22,1.69924 0,52.6601 -8.83,-2.8203 c -12.71,-4.0976 -23.67,-6.1679 -32.56,-6.1679 -50.98,0 -75.74,35.8398 -75.74,109.4608 0,21.059 1.48,39.449 4.46,54.707 2.97,14.883 7.46,27.25 13.44,36.813 5.8,9.23 13.17,16.058 22,20.418 8.96,4.461 19.97,6.742 32.78,6.742 9.28,0 21.21,-2.52 35.47,-7.551 l 8.98,-3.102 0,51.653 -4.34,1.668 c -16.66,6.34 -33.74,9.609 -50.86,9.609 -46.25,0 -81.17,-14.637 -103.78,-43.539"
         style="fill:#231f20;fill-opacity:1;fill-rule:nonzero;stroke:none"
         id="path72"
         inkscape:connector-curvature="0" /><path
         d="m 4640.28,104.398 -12.96,49.852 c -8.61,33.898 -15.68,70.07 -21.08,108.578 -2.65,-18.758 -6.02,-37.777 -10.17,-57.019 -4.16,-19.239 -9.01,-39.731 -14.62,-61.27 l -10.72,-40.141 69.55,0 z m -55.98,219.551 45.57,0 93.2,-312.9881 -57.99,0 -16.33,60.8672 -86.18,0 -16.6,-60.8672 -56.29,0 94.62,312.9881"
         style="fill:#231f20;fill-opacity:1;fill-rule:nonzero;stroke:none"
         id="path74"
         inkscape:connector-curvature="0" /><path
         d="m 4624.84,317.211 c 2.7,-9.051 84.42,-283.461 89.18,-299.5704 -11.46,0 -36.69,0 -43.81,0 -2.25,8.4297 -16.3,60.9297 -16.3,60.9297 l -96.5,0 c 0,0 -14.29,-52.5312 -16.57,-60.9297 -6.98,0 -30.8,0 -42.18,0 4.88,16.168 87.88,290.5504 90.58,299.5704 6.95,0 28.65,0 35.6,0 z m 5.03,13.437 -50.58,0 -98.68,-326.42925 70.48,0 c 0,0 14.36,52.56255 16.63,60.91015 8.5,0 67.28,0 75.87,0 2.22,-8.4101 16.33,-60.91015 16.33,-60.91015 l 72.16,0 -97.2,326.42925 -5.01,0"
         style="fill:#231f20;fill-opacity:1;fill-rule:nonzero;stroke:none"
         id="path76"
         inkscape:connector-curvature="0" /><path
         d="m 4587.91,142.809 c 0.03,0 14.72,61.582 14.72,61.582 1.36,6.328 2.18,12.578 3.37,18.929 4.33,-24.492 9.13,-48.371 14.83,-70.742 0,0 7.77,-29.828 10.74,-41.449 -11.37,0 -40.62,0 -52.1,0 2.82,10.562 8.44,31.68 8.44,31.68 z m 11.62,120.961 c -2.55,-18.54 -5.98,-37.598 -10.02,-56.559 l -14.59,-61 -12.96,-48.5196 87,0 -15.14,58.2306 c -8.5,33.5 -15.57,69.789 -20.97,107.848 l -13.32,0"
         style="fill:#231f20;fill-opacity:1;fill-rule:nonzero;stroke:none"
         id="path78"
         inkscape:connector-curvature="0" /><path
         d="m 4812.26,47.0117 c 24.21,0 40.93,3.668 50.16,11.1367 9.28,7.4024 13.93,20.8204 13.93,40.3321 0,19.9295 -4.86,33.9175 -14.47,41.8985 -9.48,8.082 -26.01,12.172 -49.62,12.172 l 0,-105.5393 z m 0,138.3403 c 22.85,0 38.72,3.769 47.6,11.359 8.9,7.98 13.33,21.93 13.33,41.93 0,33.738 -17,50.621 -51.01,50.621 l -7.07,0 c -1.52,0 -2.49,-0.063 -2.85,-0.192 l 0,-103.718 z m -54.59,138.597 79.25,0 c 61.98,0 92.98,-27.808 92.98,-83.328 0,-21.223 -4.03,-36.973 -12.1,-47.223 -8.07,-10.289 -22.33,-18.058 -42.79,-23.339 23.43,-6.739 39.48,-15.379 48.16,-25.95 8.71,-10.371 13.05,-26.058 13.05,-46.9996 0,-57.4375 -34.05,-86.1485 -102.21,-86.1485 l -76.34,0 0,312.9881"
         style="fill:#231f20;fill-opacity:1;fill-rule:nonzero;stroke:none"
         id="path80"
         inkscape:connector-curvature="0" /><path
         d="m 4836.92,317.211 c 58.06,0 86.25,-25.07 86.25,-76.59 0,-19.57 -3.58,-34.09 -10.65,-43.07 -7.13,-9.071 -20.3,-16.141 -39.21,-20.973 l -23.88,-6.117 23.73,-6.84 c 21.97,-6.332 37.08,-14.34 44.79,-23.762 7.65,-9.187 11.5,-23.539 11.5,-42.7496 0,-53.5078 -31.2,-79.4688 -95.44,-79.4688 0,0 -58.47,0 -69.64,0 0,12.5899 0,286.9374 0,299.5704 11.28,0 72.55,0 72.55,0 z m -79.25,13.437 -6.77,0 0,-326.42925 83.11,0 c 72.26,0 108.92,31.26175 108.92,92.89065 0,22.4216 -4.92,39.6996 -14.6,51.3206 -6.98,8.461 -17.87,15.59 -32.71,21.601 11.98,5.098 21.36,11.469 27.49,19.18 9.11,11.59 13.47,28.437 13.47,51.41 0,58.859 -34.41,90.027 -99.66,90.027 l -79.25,0"
         style="fill:#231f20;fill-opacity:1;fill-rule:nonzero;stroke:none"
         id="path82"
         inkscape:connector-curvature="0" /><path
         d="m 4822.18,282.551 c 30.19,0 44.3,-13.981 44.3,-43.91 0,-17.903 -3.73,-30.313 -11.1,-36.961 -6.62,-5.61 -19.06,-8.68 -36.42,-9.321 0,11.321 0,79.539 0,90.192 1.37,0 3.22,0 3.22,0 z m -4.52,13.449 -2.55,0 -11.05,-1.238 1.49,-5.692 0,-110.422 6.71,0 c 24.73,0 41.75,4.211 51.95,12.922 10.44,9.418 15.71,25.2 15.71,47.071 0,37.539 -20.02,57.359 -57.74,57.359 l -4.52,0"
         style="fill:#231f20;fill-opacity:1;fill-rule:nonzero;stroke:none"
         id="path84"
         inkscape:connector-curvature="0" /><path
         d="m 4818.96,145.512 c 18.12,-0.692 31.28,-4.012 38.54,-10.262 8.05,-6.648 12.14,-19.02 12.14,-36.7695 0,-17.2696 -3.86,-29.0821 -11.44,-35.0821 -7.07,-5.7382 -20.51,-8.7968 -39.24,-9.4375 0,11.3086 0,80.1991 0,91.5511 z m -13.41,13.75 0,-118.9925 6.71,0 c 26,0 43.81,4.1289 54.37,12.6211 10.87,8.711 16.39,24.0703 16.39,45.5899 0,21.9995 -5.64,37.8395 -16.87,47.0975 -10.71,9.16 -28.38,13.684 -53.89,13.684 l -6.71,0"
         style="fill:#231f20;fill-opacity:1;fill-rule:nonzero;stroke:none"
         id="path86"
         inkscape:connector-curvature="0" /><path
         d="m 5114.69,104.398 -12.93,49.852 c -8.65,33.898 -15.72,70.07 -21.13,108.578 -2.63,-18.758 -6,-37.777 -10.16,-57.019 -4.16,-19.239 -9.01,-39.731 -14.66,-61.27 l -10.68,-40.141 69.56,0 z m -56.06,219.551 45.62,0 93.22,-312.9881 -58.03,0 -16.32,60.8672 -86.16,0 -16.62,-60.8672 -56.3,0 94.59,312.9881"
         style="fill:#231f20;fill-opacity:1;fill-rule:nonzero;stroke:none"
         id="path88"
         inkscape:connector-curvature="0" /><path
         d="m 5099.27,317.211 c 2.7,-9.051 84.39,-283.461 89.19,-299.5704 -11.54,0 -36.75,0 -43.79,0 -2.31,8.4297 -16.36,60.9297 -16.36,60.9297 l -96.5,0 c 0,0 -14.29,-52.5312 -16.6,-60.9297 -6.98,0 -30.74,0 -42.12,0 4.89,16.168 87.88,290.5504 90.55,299.5704 6.95,0 28.65,0 35.63,0 z m 4.98,13.437 -50.56,0 L 4955,4.21875 l 70.53,0 c 0,0 14.32,52.56255 16.57,60.91015 8.53,0 67.33,0 75.92,0 2.19,-8.4101 16.3,-60.91015 16.3,-60.91015 l 72.16,0 -97.16,326.42925 -5.07,0"
         style="fill:#231f20;fill-opacity:1;fill-rule:nonzero;stroke:none"
         id="path90"
         inkscape:connector-curvature="0" /><path
         d="m 5062.33,142.809 14.72,61.582 c 1.37,6.328 2.19,12.578 3.37,18.929 4.35,-24.492 9.1,-48.371 14.79,-70.742 0,0 7.76,-29.828 10.8,-41.449 -11.42,0 -40.7,0 -52.14,0 2.82,10.562 8.46,31.68 8.46,31.68 z m 11.63,120.961 c -2.61,-18.54 -6.01,-37.598 -10.04,-56.559 l -14.6,-61 -12.93,-48.5196 86.97,0 -15.11,58.2306 c -8.52,33.5 -15.56,69.789 -21,107.848 l -13.29,0"
         style="fill:#231f20;fill-opacity:1;fill-rule:nonzero;stroke:none"
         id="path92"
         inkscape:connector-curvature="0" /><path
         d="m 5290.84,47.6797 c 35.75,0 59.66,7.8008 71.74,23.4219 12.41,15.5703 18.6,45.9104 18.6,90.9764 0,48.461 -5.92,81.723 -17.78,99.934 -11.87,18.179 -33.57,27.25 -65.19,27.25 l -7.37,0 0,-241.5823 z m -58.78,276.2693 72.07,0 c 21.94,0 40.45,-1.789 55.51,-5.32 13.87,-3.367 26.28,-9.399 37.14,-18.02 16.3,-12.961 27.95,-29.898 34.9,-50.679 6.94,-20.141 10.44,-48.981 10.44,-86.539 0,-34.469 -3.86,-62.582 -11.53,-84.3402 -7.5,-20.8203 -19.95,-36.6914 -37.21,-47.6406 -21.21,-13.6797 -59.24,-20.4493 -114.04,-20.4493 l -47.28,0 0,312.9881"
         style="fill:#231f20;fill-opacity:1;fill-rule:nonzero;stroke:none"
         id="path94"
         inkscape:connector-curvature="0" /><path
         d="m 5304.13,317.211 c 21.34,0 39.48,-1.731 53.96,-5.102 12.81,-3.129 24.43,-8.8 34.53,-16.75 15.17,-12.109 26.16,-28.07 32.68,-47.558 6.71,-19.41 10.08,-47.789 10.08,-84.41 0,-33.512 -3.73,-61.153 -11.17,-82.0902 -6.94,-19.2695 -18.51,-34.1406 -34.39,-44.2188 -20.05,-12.9218 -57.25,-19.4414 -110.48,-19.4414 0,0 -30.68,0 -40.57,0 0,12.5899 0,286.9374 0,299.5704 11.07,0 65.36,0 65.36,0 z m -72.07,13.437 -6.74,0 0,-326.42925 54.02,0 c 56.69,0 95.13,7.01175 117.71,21.51175 18.39,11.6914 31.87,28.8711 39.82,51.0508 7.94,22.4179 11.98,51.5467 11.98,86.6097 0,38.097 -3.64,68 -10.8,88.757 -7.35,21.872 -19.85,39.993 -37.08,53.711 -11.62,9.231 -25.01,15.711 -39.79,19.36 -15.51,3.609 -34.72,5.429 -57.05,5.429 l -72.07,0"
         style="fill:#231f20;fill-opacity:1;fill-rule:nonzero;stroke:none"
         id="path96"
         inkscape:connector-curvature="0" /><path
         d="m 5298.21,282.551 c 29.05,0 49.1,-8.129 59.54,-24.242 11.11,-17 16.69,-49.368 16.69,-96.231 0,-43.297 -5.76,-72.4686 -17.12,-86.7889 -9.92,-12.8672 -30.28,-19.5078 -59.74,-20.4805 0,12.9805 0,215.4024 0,227.7424 0.09,0 0.63,0 0.63,0 z m -7.37,13.449 -6.68,0 0,-255.0312 6.68,0 c 38.33,0 63.54,8.4921 77.08,25.9726 13.41,16.9375 20,48.0706 20,95.1366 0,50.231 -6.16,84.094 -18.91,103.57 -13.11,20.153 -36.93,30.352 -70.8,30.352 l -7.37,0"
         style="fill:#231f20;fill-opacity:1;fill-rule:nonzero;stroke:none"
         id="path98"
         inkscape:connector-curvature="0" /><path
         d="m 5657.02,155.461 c 0,54.301 -3.43,90.277 -10.19,108.039 -6.83,17.871 -20.7,26.852 -41.63,26.852 -21,0 -34.99,-8.223 -41.95,-24.582 -6.82,-16.54 -10.22,-49.68 -10.22,-99.532 0,-45.886 3.58,-77.7067 10.77,-95.4685 7.34,-16.789 21.15,-25.1914 41.4,-25.1914 19.78,0 33.37,7.8321 40.78,23.5508 7.34,15.6016 11.04,44.3711 11.04,86.3321 z m 60.94,4.129 c 0,-55.352 -8.56,-94.6798 -25.7,-117.9494 -17.12,-23.2812 -45.82,-34.90232 -86.07,-34.90232 -42.29,0 -72.16,12.53122 -89.42,37.51172 -17.15,24.5195 -25.68,68.07 -25.68,130.602 0,55.75 8.44,95.226 25.35,118.347 17.13,23.313 46.09,34.942 86.97,34.942 36.5,0 63.54,-9.02 81.23,-27.02 11.65,-12.012 20.12,-29.16 25.4,-51.371 5.25,-20.578 7.92,-50.621 7.92,-90.16"
         style="fill:#231f20;fill-opacity:1;fill-rule:nonzero;stroke:none"
         id="path100"
         inkscape:connector-curvature="0" /><path
         d="m 5522.29,48.1016 c -16.26,23.25 -24.49,65.9104 -24.49,126.7504 0,54.046 8.1,92.558 24.09,114.378 15.7,21.372 43.1,32.2 81.52,32.2 34.4,0 60.11,-8.41 76.43,-24.969 10.75,-11.121 18.7,-27.352 23.7,-48.262 5.1,-20.051 7.68,-49.859 7.68,-88.609 0,-53.649 -8.22,-91.9806 -24.36,-113.9416 -15.73,-21.3671 -42.86,-32.1992 -80.67,-32.1992 -39.77,0 -68.03,11.6524 -83.9,34.6524 z m -11.25,249.1094 c -17.94,-24.551 -26.68,-64.602 -26.68,-122.359 0,-64.614 8.79,-108.5434 26.88,-134.4301 C 5529.76,13.6211 5561.71,0 5606.19,0 c 42.34,0 73.14,12.6914 91.47,37.6992 18.21,24.6602 26.98,64.5708 26.98,121.8908 0,39.871 -2.71,70.769 -8.08,91.859 -5.52,23.18 -14.66,41.512 -27.07,54.379 -18.99,19.242 -47.97,29 -86.08,29 -42.94,0 -73.99,-12.668 -92.37,-37.617"
         style="fill:#231f20;fill-opacity:1;fill-rule:nonzero;stroke:none"
         id="path102"
         inkscape:connector-curvature="0" /><path
         d="m 5569.99,73.4688 c -6.8,16.6328 -10.25,47.9222 -10.25,92.7692 0,48.703 3.31,81.332 9.73,96.953 5.83,13.707 17.51,20.387 35.73,20.387 18.27,0 29.52,-7.117 35.32,-22.457 6.52,-16.949 9.77,-52.492 9.77,-105.66 0,-40.723 -3.46,-68.8516 -10.38,-83.4219 -6.25,-13.2891 -17.61,-19.7188 -34.71,-19.7188 -17.49,0 -29.02,6.918 -35.21,21.1485 z M 5557.03,268.41 c -7.19,-17.57 -10.67,-51.012 -10.67,-102.172 0,-47.258 3.64,-79.2966 11.22,-97.988 8.56,-19.5703 24.49,-29.3984 47.62,-29.3984 22.54,0 38.33,9.25 46.82,27.4297 7.92,16.6289 11.74,45.8207 11.74,89.1797 0,55.598 -3.52,91.738 -10.65,110.43 -7.77,20.371 -24.31,31.14 -47.91,31.14 -23.86,0 -40.06,-9.66 -48.17,-28.621"
         style="fill:#231f20;fill-opacity:1;fill-rule:nonzero;stroke:none"
         id="path104"
         inkscape:connector-curvature="0" /><path
         d="m 5920.98,317.48 0,-40.91 c -17.85,9.168 -33.9,13.782 -48.17,13.782 -15.38,0 -27.98,-3.973 -37.71,-11.832 -9.81,-7.442 -14.66,-17.399 -14.66,-29.872 0,-10.937 3.49,-20.359 10.44,-28.207 3.54,-4.191 9.46,-9.632 17.68,-16.269 8.17,-6.621 18.79,-14.633 31.78,-23.942 23.95,-17.511 40.24,-32.621 48.92,-45.308 8.68,-12.352 13.04,-27.461 13.04,-45.3126 0,-24.2383 -9.56,-44.1797 -28.67,-59.9297 -19.03,-15.2891 -43.4,-22.94142 -73.07,-22.94142 -24.94,0 -46.25,4.88282 -63.88,14.72262 l 0,41.5977 c 20.78,-10.918 39.78,-16.418 56.84,-16.418 15.96,0 28.46,3.8282 37.48,11.4805 9.01,7.6406 13.5,18.0508 13.5,31.1602 0,11.3477 -3.52,21.6407 -10.44,30.6797 -3.61,4.34 -8.59,9.289 -14.99,14.898 -6.4,5.68 -14.45,11.93 -24.03,18.84 -14.9,10.531 -27.26,19.879 -37.03,27.981 -9.83,8.14 -17.08,15.23 -21.79,21.34 -9.07,11.921 -13.59,26.91 -13.59,45.101 0,24.508 8.92,43.93 26.61,58.258 17.97,14.5 41.97,21.762 72.01,21.762 20.85,0 40.72,-3.563 59.73,-10.661"
         style="fill:#231f20;fill-opacity:1;fill-rule:nonzero;stroke:none"
         id="path106"
         inkscape:connector-curvature="0" /><path
         d="m 5875.33,52.9609 c 10.53,8.9688 15.87,21.211 15.87,36.3204 0,12.7967 -3.97,24.5197 -11.83,34.7697 -0.15,0.219 -15.9,15.879 -15.9,15.879 l -24.5,19.199 c -14.67,10.41 -27.06,19.73 -36.68,27.75 -9.38,7.793 -16.38,14.59 -20.73,20.262 -8.13,10.589 -12.19,24.398 -12.19,40.98 0,22.559 7.92,39.93 24.16,53.059 16.59,13.422 39.38,20.25 67.72,20.25 18.36,0 36.08,-3.282 52.99,-9.078 0,-5.641 0,-16.352 0,-25.821 -14.85,6.43 -28.96,10.5 -41.43,10.5 -16.9,0 -31.01,-4.461 -41.96,-13.23 -11.32,-8.653 -17.18,-20.492 -17.18,-35.153 0,-12.609 4.09,-23.597 12.2,-32.668 3.8,-4.5 9.89,-10.109 18.49,-17 l 32.1,-24.242 c 23.12,-16.879 39.02,-31.539 47.24,-43.617 7.89,-11.191 11.84,-25.18 11.84,-41.5116 0,-22.2891 -8.56,-40.2578 -26.16,-54.7383 -17.69,-14.1797 -40.84,-21.4219 -68.82,-21.4219 -22.15,0 -41.24,4.25 -57.2,12.2813 0,4.9179 0,16.5976 0,26.7383 17.99,-8.1602 34.83,-12.5586 50.16,-12.5586 17.51,0 31.59,4.3984 41.81,13.0507 z m -90.27,258.6871 c -19.34,-15.648 -29.14,-36.988 -29.14,-63.527 0,-19.582 5.01,-36.16 14.96,-49.141 5.07,-6.621 12.51,-13.96 22.85,-22.46 9.89,-8.219 22.49,-17.75 37.45,-28.34 l 23.43,-18.328 14.26,-14.204 c 5.92,-7.738 8.92,-16.4488 8.92,-26.3667 0,-11.1915 -3.64,-19.6993 -11.17,-26.043 -7.73,-6.5469 -18.84,-9.8867 -33.1,-9.8867 -15.9,0 -33.99,5.2773 -53.74,15.6289 l -9.87,5.1914 0,-56.6914 3.46,-1.9414 C 5791.97,5.23047 5814.55,0 5840.56,0 c 31.1,0 57.11,8.21875 77.32,24.3984 20.66,17.0821 31.1,39 31.1,65.211 0,19.1796 -4.76,35.6916 -14.19,49.1916 -9.17,13.418 -25.71,28.738 -50.47,46.847 -0.03,0 -31.54,23.774 -31.54,23.774 -7.79,6.277 -13.46,11.437 -16.8,15.359 -5.98,6.758 -8.87,14.528 -8.87,23.867 0,10.352 3.94,18.391 12.02,24.524 8.65,6.93 19.97,10.406 33.68,10.406 13.09,0 28.23,-4.359 45.07,-13.008 l 9.8,-5.039 0,56.59 -4.4,1.641 c -19.61,7.34 -40.51,11.066 -62.03,11.066 -31.49,0 -57.11,-7.789 -76.19,-23.18"
         style="fill:#231f20;fill-opacity:1;fill-rule:nonzero;stroke:none"
         id="path108"
         inkscape:connector-curvature="0" /><path
         d="m 6077.4,135.922 102.91,0 0,31.5 -102.91,0 0,-31.5 z"
         style="fill:#231f20;fill-opacity:1;fill-rule:nonzero;stroke:none"
         id="path110"
         inkscape:connector-curvature="0" /><path
         d="m 6173.6,160.711 c 0,-6.031 0,-12.012 0,-18.082 -10.95,0 -78.59,0 -89.52,0 0,6.07 0,12.051 0,18.082 10.93,0 78.57,0 89.52,0 z m 6.71,13.449 -109.67,0 0,-44.941 116.37,0 0,44.941 -6.7,0"
         style="fill:#231f20;fill-opacity:1;fill-rule:nonzero;stroke:none"
         id="path112"
         inkscape:connector-curvature="0" /><path
         d="m 6333.01,323.949 156.79,0 0,-34.687 -97.98,0 0,-100.813 88.39,0 0,-34.687 -88.39,0 0,-142.8011 -58.81,0 0,312.9881"
         style="fill:#231f20;fill-opacity:1;fill-rule:nonzero;stroke:none"
         id="path114"
         inkscape:connector-curvature="0" /><path
         d="m 6483.04,317.211 c 0,-6.652 0,-14.563 0,-21.211 -11.62,0 -97.98,0 -97.98,0 l 0,-114.25 c 0,0 76.95,0 88.43,0 0,-6.648 0,-14.602 0,-21.281 -11.48,0 -88.43,0 -88.43,0 0,0 0,-130.6096 0,-142.8284 -9.17,0 -36.17,0 -45.37,0 0,12.5899 0,286.9374 0,299.5704 11.74,0 131.55,0 143.35,0 z m 6.76,13.437 -163.59,0 0,-326.42925 72.32,0 c 0,0 0,130.64025 0,142.84025 11.47,0 88.39,0 88.39,0 l 0,48.101 c 0,0 -76.92,0 -88.39,0 0,10.899 0,76.5 0,87.391 11.68,0 97.95,0 97.95,0 l 0,48.097 -6.68,0"
         style="fill:#231f20;fill-opacity:1;fill-rule:nonzero;stroke:none"
         id="path116"
         inkscape:connector-curvature="0" /><path
         d="m 6534.66,323.949 155.97,0 0,-34.687 -97.13,0 0,-100.813 86.15,0 0,-34.687 -86.15,0 0,-108.1839 97.13,0 0,-34.6172 -155.97,0 0,312.9881"
         style="fill:#231f20;fill-opacity:1;fill-rule:nonzero;stroke:none"
         id="path118"
         inkscape:connector-curvature="0" /><path
         d="m 6683.93,317.211 c 0,-6.652 0,-14.563 0,-21.211 -11.65,0 -97.13,0 -97.13,0 l 0,-114.25 c 0,0 74.73,0 86.18,0 0,-6.648 0,-14.602 0,-21.281 -11.45,0 -86.18,0 -86.18,0 l 0,-121.6174 c 0,0 85.48,0 97.13,0 0,-6.5899 0,-14.543 0,-21.211 -11.77,0 -130.79,0 -142.53,0 0,12.5899 0,286.9374 0,299.5704 11.74,0 130.76,0 142.53,0 z m 6.7,13.437 -162.64,0 0,-326.42925 169.41,0 0,48.10155 c 0,0 -85.51,0 -97.17,0 0,11.0508 0,83.6997 0,94.7387 11.42,0 86.16,0 86.16,0 l 0,48.101 c 0,0 -74.74,0 -86.16,0 0,10.899 0,76.5 0,87.391 11.66,0 97.17,0 97.17,0 l 0,48.097 -6.77,0"
         style="fill:#231f20;fill-opacity:1;fill-rule:nonzero;stroke:none"
         id="path120"
         inkscape:connector-curvature="0" /><path
         d="m 6803.07,185.352 c 22.67,0 38.63,3.769 48,11.359 9.35,7.519 13.97,20.328 13.97,38.289 0,9.68 -0.98,18 -2.95,24.879 -1.97,6.93 -5.04,12.5 -9.22,16.82 -4.22,4.313 -9.66,7.52 -16.27,9.52 -6.65,2.011 -14.57,3.043 -23.7,3.043 l -9.83,0 0,-103.91 z m -58.81,138.597 76.99,0 c 31.83,0 55.53,-5.527 71.04,-16.418 19.69,-14.242 29.49,-35.929 29.49,-65.101 0,-22.418 -5.19,-40.45 -15.53,-54.071 -10.38,-13.539 -25.17,-21.937 -44.37,-25.187 l 79.59,-152.2111 -59.17,0 -79.23,153.1171 0,-153.1171 -58.81,0 0,312.9881"
         style="fill:#231f20;fill-opacity:1;fill-rule:nonzero;stroke:none"
         id="path122"
         inkscape:connector-curvature="0" /><path
         d="m 6821.25,317.211 c 30.22,0 52.86,-5.102 67.15,-15.211 17.94,-12.891 26.68,-32.398 26.68,-59.57 0,-20.782 -4.8,-37.621 -14.17,-49.942 -9.39,-12.289 -22.52,-19.726 -40.15,-22.668 l -9.14,-1.55 c 0,0 69.77,-133.4419 78.78,-150.6294 -13.45,0 -38.33,0 -44,0 -3.55,6.9414 -77.32,149.5074 -77.32,149.5074 l -12.71,-3.07 c 0,0 0,-134.1288 0,-146.4374 -9.14,0 -36.15,0 -45.37,0 0,12.5899 0,286.9374 0,299.5704 11.23,0 70.25,0 70.25,0 z m -76.99,13.437 -6.71,0 0,-326.42925 72.31,0 c 0,0 0,95.14065 0,132.22225 17.88,-34.589 68.34,-132.22225 68.34,-132.22225 l 74.38,0 c 0,0 -73.64,140.90225 -80.84,154.55125 16.66,4.429 30.16,12.839 39.84,25.558 11.23,14.711 16.91,34.281 16.91,58.102 0,31.32 -10.83,55.05 -32.29,70.531 -16.69,11.777 -41.87,17.687 -74.95,17.687 l -76.99,0"
         style="fill:#231f20;fill-opacity:1;fill-rule:nonzero;stroke:none"
         id="path124"
         inkscape:connector-curvature="0" /><path
         d="m 6812.9,282.551 c 8.44,0 15.75,-0.91 21.73,-2.731 5.49,-1.718 10.05,-4.3 13.41,-7.8 3.41,-3.508 5.98,-8.219 7.61,-13.981 1.8,-6.25 2.71,-14.027 2.71,-23.039 0,-15.781 -3.89,-26.91 -11.53,-33.078 -7.16,-5.801 -19.76,-8.883 -36.97,-9.563 0,11.321 0,79.27 0,90.192 1.28,0 3.04,0 3.04,0 z m -9.83,13.449 -6.7,0 0,-117.352 6.7,0 c 24.46,0 41.54,4.153 52.19,12.813 10.96,8.848 16.48,23.48 16.48,43.539 0,10.281 -1,19.301 -3.16,26.738 -2.27,7.922 -5.91,14.532 -10.92,19.633 -4.97,5.16 -11.38,8.949 -19.12,11.289 -7.22,2.238 -15.86,3.34 -25.64,3.34 l -9.83,0"
         style="fill:#231f20;fill-opacity:1;fill-rule:nonzero;stroke:none"
         id="path126"
         inkscape:connector-curvature="0" /><path
         d="m 7046.23,185.352 c 22.58,0 38.57,3.769 47.92,11.359 9.35,7.519 14.01,20.328 14.01,38.289 0,9.68 -0.93,18 -2.94,24.879 -1.94,6.93 -5.03,12.5 -9.25,16.82 -4.22,4.313 -9.62,7.52 -16.26,9.52 -6.62,2.011 -14.54,3.043 -23.67,3.043 l -9.81,0 0,-103.91 z m -58.81,138.597 76.93,0 c 31.83,0 55.5,-5.527 71.07,-16.418 19.69,-14.242 29.49,-35.929 29.49,-65.101 0,-22.418 -5.21,-40.45 -15.56,-54.071 -10.36,-13.539 -25.13,-21.937 -44.34,-25.187 l 79.6,-152.2111 -59.18,0 -79.2,153.1171 0,-153.1171 -58.81,0 0,312.9881"
         style="fill:#231f20;fill-opacity:1;fill-rule:nonzero;stroke:none"
         id="path128"
         inkscape:connector-curvature="0" /><path
         d="m 7064.35,317.211 c 30.25,0 52.83,-5.102 67.21,-15.211 17.87,-12.891 26.61,-32.398 26.61,-59.57 0,-20.782 -4.76,-37.621 -14.14,-49.942 -9.37,-12.289 -22.51,-19.726 -40.14,-22.668 l -9.13,-1.55 c 0,0 69.76,-133.4419 78.78,-150.6294 -13.45,0 -38.36,0 -44.04,0 -3.52,6.9414 -77.32,149.5074 -77.32,149.5074 l -12.72,-3.07 c 0,0 0,-134.1288 0,-146.4374 -9.16,0 -36.17,0 -45.36,0 0,12.5899 0,286.9374 0,299.5704 11.22,0 70.25,0 70.25,0 z m -76.93,13.437 -6.77,0 0,-326.42925 72.29,0 c 0,0 0,95.14065 0,132.22225 17.87,-34.589 68.4,-132.22225 68.4,-132.22225 l 74.37,0 c 0,0 -73.68,140.90225 -80.81,154.55125 16.63,4.429 30.11,12.839 39.85,25.558 11.2,14.711 16.87,34.281 16.87,58.102 0,31.32 -10.83,55.05 -32.25,70.531 -16.76,11.777 -41.95,17.687 -75.02,17.687 l -76.93,0"
         style="fill:#231f20;fill-opacity:1;fill-rule:nonzero;stroke:none"
         id="path130"
         inkscape:connector-curvature="0" /><path
         d="m 7056.04,282.551 c 8.43,0 15.78,-0.91 21.69,-2.731 5.52,-1.718 10.04,-4.3 13.41,-7.8 3.43,-3.508 5.95,-8.219 7.65,-13.981 1.79,-6.25 2.67,-14.027 2.67,-23.039 0,-15.781 -3.88,-26.91 -11.53,-33.078 -7.17,-5.801 -19.78,-8.883 -36.99,-9.563 0,11.321 0,79.27 0,90.192 1.37,0 3.1,0 3.1,0 z m -9.81,13.449 -6.77,0 0,-117.352 6.77,0 c 24.4,0 41.48,4.153 52.14,12.813 10.95,8.848 16.53,23.48 16.53,43.539 0,10.281 -1.09,19.301 -3.18,26.738 -2.31,7.922 -5.95,14.532 -10.9,19.633 -5,5.16 -11.41,8.949 -19.14,11.289 -7.29,2.238 -15.88,3.34 -25.64,3.34 l -9.81,0"
         style="fill:#231f20;fill-opacity:1;fill-rule:nonzero;stroke:none"
         id="path132"
         inkscape:connector-curvature="0" /><path
         d="m 7230.52,323.949 155.94,0 0,-34.687 -97.12,0 0,-100.813 86.18,0 0,-34.687 -86.18,0 0,-108.1839 97.12,0 0,-34.6172 -155.94,0 0,312.9881"
         style="fill:#231f20;fill-opacity:1;fill-rule:nonzero;stroke:none"
         id="path134"
         inkscape:connector-curvature="0" /><path
         d="m 7379.74,317.211 c 0,-6.652 0,-14.563 0,-21.211 -11.66,0 -97.14,0 -97.14,0 l 0,-114.25 c 0,0 74.76,0 86.18,0 0,-6.648 0,-14.602 0,-21.281 -11.42,0 -86.18,0 -86.18,0 l 0,-121.6174 c 0,0 85.48,0 97.14,0 0,-6.5899 0,-14.543 0,-21.211 -11.78,0 -130.74,0 -142.54,0 0,12.5899 0,286.9374 0,299.5704 11.8,0 130.76,0 142.54,0 z m 6.72,13.437 -162.67,0 0,-326.42925 169.44,0 0,48.10155 c 0,0 -85.53,0 -97.19,0 0,11.0508 0,83.6997 0,94.7387 11.44,0 86.18,0 86.18,0 l 0,48.101 c 0,0 -74.74,0 -86.18,0 0,10.899 0,76.5 0,87.391 11.66,0 97.19,0 97.19,0 l 0,48.097 -6.77,0"
         style="fill:#231f20;fill-opacity:1;fill-rule:nonzero;stroke:none"
         id="path136"
         inkscape:connector-curvature="0" /><path
         d="m 7405.07,323.949 190.97,0 0,-36.777 -65.58,0 0,-276.2111 -57.77,0 0,276.2111 -67.62,0 0,36.777"
         style="fill:#231f20;fill-opacity:1;fill-rule:nonzero;stroke:none"
         id="path138"
         inkscape:connector-curvature="0" /><path
         d="m 7589.3,317.211 c 0,-6.949 0,-16.332 0,-23.332 -10.83,0 -65.61,0 -65.61,0 0,0 0,-263.4688 0,-276.2384 -9.07,0 -35.19,0 -44.31,0 0,12.7696 0,276.2384 0,276.2384 0,0 -56.65,0 -67.57,0 0,7 0,16.383 0,23.332 12.05,0 165.45,0 177.49,0 z m 6.74,13.437 -197.67,0 0,-50.187 c 0,0 56.65,0 67.58,0 0,-12.801 0,-276.24225 0,-276.24225 l 71.22,0 c 0,0 0,263.44125 0,276.24225 10.8,0 65.54,0 65.54,0 l 0,50.187 -6.67,0"
         style="fill:#231f20;fill-opacity:1;fill-rule:nonzero;stroke:none"
         id="path140"
         inkscape:connector-curvature="0" /><path
         d="m 7628.56,323.949 155.95,0 0,-34.687 -97.13,0 0,-100.813 86.18,0 0,-34.687 -86.18,0 0,-108.1839 97.13,0 0,-34.6172 -155.95,0 0,312.9881"
         style="fill:#231f20;fill-opacity:1;fill-rule:nonzero;stroke:none"
         id="path142"
         inkscape:connector-curvature="0" /><path
         d="m 7777.81,317.211 c 0,-6.652 0,-14.563 0,-21.211 -11.66,0 -97.14,0 -97.14,0 l 0,-114.25 c 0,0 74.74,0 86.16,0 0,-6.648 0,-14.602 0,-21.281 -11.42,0 -86.16,0 -86.16,0 l 0,-121.6174 c 0,0 85.48,0 97.14,0 0,-6.5899 0,-14.543 0,-21.211 -11.8,0 -130.76,0 -142.48,0 0,12.5899 0,286.9374 0,299.5704 11.72,0 130.68,0 142.48,0 z m 6.7,13.437 -162.64,0 0,-326.42925 169.38,0 0,48.10155 c 0,0 -85.48,0 -97.17,0 0,11.0508 0,83.6997 0,94.7387 11.45,0 86.18,0 86.18,0 l 0,48.101 c 0,0 -74.73,0 -86.18,0 0,10.899 0,76.5 0,87.391 11.69,0 97.17,0 97.17,0 l 0,48.097 -6.74,0"
         style="fill:#231f20;fill-opacity:1;fill-rule:nonzero;stroke:none"
         id="path144"
         inkscape:connector-curvature="0" /><path
         d="m 7897.01,185.352 c 22.58,0 38.6,3.769 47.94,11.359 9.35,7.519 14,20.328 14,38.289 0,9.68 -0.98,18 -2.98,24.879 -1.94,6.93 -5,12.5 -9.22,16.82 -4.19,4.313 -9.62,7.52 -16.24,9.52 -6.64,2.011 -14.56,3.043 -23.73,3.043 l -9.77,0 0,-103.91 z m -58.88,138.597 77.03,0 c 31.83,0 55.47,-5.527 71.03,-16.418 19.64,-14.242 29.47,-35.929 29.47,-65.101 0,-22.418 -5.19,-40.45 -15.5,-54.071 -10.36,-13.539 -25.16,-21.937 -44.37,-25.187 l 79.6,-152.2111 -59.18,0 -79.2,153.1171 0,-153.1171 -58.88,0 0,312.9881"
         style="fill:#231f20;fill-opacity:1;fill-rule:nonzero;stroke:none"
         id="path146"
         inkscape:connector-curvature="0" /><path
         d="m 7915.16,317.211 c 30.22,0 52.83,-5.102 67.15,-15.211 17.9,-12.891 26.65,-32.398 26.65,-59.57 0,-20.782 -4.77,-37.621 -14.17,-49.942 -9.38,-12.289 -22.47,-19.726 -40.15,-22.668 l -9.11,-1.55 c 0,0 69.73,-133.4419 78.75,-150.6294 -13.41,0 -38.32,0 -44.01,0 -3.57,6.9414 -77.31,149.5074 -77.31,149.5074 l -12.69,-3.07 c 0,0 0,-134.1288 0,-146.4374 -9.2,0 -36.2,0 -45.4,0 0,12.5899 0,286.9374 0,299.5704 11.23,0 70.29,0 70.29,0 z m -77.03,13.437 -6.67,0 0,-326.42925 72.25,0 c 0,0 0,95.14065 0,132.22225 17.91,-34.589 68.44,-132.22225 68.44,-132.22225 l 74.34,0 c 0,0 -73.71,140.90225 -80.78,154.55125 16.6,4.429 30.11,12.839 39.76,25.558 11.29,14.711 16.93,34.281 16.93,58.102 0,31.32 -10.84,55.05 -32.29,70.531 -16.66,11.777 -41.91,17.687 -74.95,17.687 l -77.03,0"
         style="fill:#231f20;fill-opacity:1;fill-rule:nonzero;stroke:none"
         id="path148"
         inkscape:connector-curvature="0" /><path
         d="m 7906.78,282.551 c 8.43,0 15.75,-0.91 21.73,-2.731 5.55,-1.718 10.04,-4.3 13.41,-7.8 3.4,-3.508 5.98,-8.219 7.62,-13.981 1.79,-6.25 2.7,-14.027 2.7,-23.039 0,-15.781 -3.88,-26.91 -11.5,-33.078 -7.2,-5.801 -19.79,-8.883 -37.03,-9.563 0,11.321 0,79.27 0,90.192 1.31,0 3.07,0 3.07,0 z m -9.77,13.449 -6.74,0 0,-117.352 6.74,0 c 24.4,0 41.49,4.153 52.16,12.813 10.96,8.848 16.54,23.48 16.54,43.539 0,10.281 -1.12,19.301 -3.25,26.738 -2.25,7.922 -5.92,14.532 -10.83,19.633 -5.04,5.16 -11.47,8.949 -19.15,11.289 -7.28,2.238 -15.9,3.34 -25.7,3.34 l -9.77,0"
         style="fill:#231f20;fill-opacity:1;fill-rule:nonzero;stroke:none"
         id="path150"
         inkscape:connector-curvature="0" /><path
         d="m 8081.3,10.9609 58.8086,0 0,312.988 -58.8086,0 0,-312.988 z"
         style="fill:#231f20;fill-opacity:1;fill-rule:nonzero;stroke:none"
         id="path152"
         inkscape:connector-curvature="0" /><path
         d="m 8133.44,317.211 c 0,-12.633 0,-286.9805 0,-299.5704 -9.26,0 -36.24,0 -45.4,0 0,12.5899 0,286.9374 0,299.5704 9.16,0 36.14,0 45.4,0 z m 6.67,13.437 -65.58,0 0,-326.42925 72.29,0 0,326.42925 -6.71,0"
         style="fill:#231f20;fill-opacity:1;fill-rule:nonzero;stroke:none"
         id="path154"
         inkscape:connector-curvature="0" /><path
         d="m 8324.79,104.398 -12.92,49.852 c -8.65,33.898 -15.72,70.07 -21.13,108.578 -2.66,-18.758 -6,-37.777 -10.12,-57.019 -4.16,-19.239 -9.02,-39.731 -14.66,-61.27 l -10.69,-40.141 69.52,0 z m -56.04,219.551 45.63,0 93.2,-312.9881 -57.99,0 -16.33,60.8672 -86.18,0 -16.6,-60.8672 -56.29,0 94.56,312.9881"
         style="fill:#231f20;fill-opacity:1;fill-rule:nonzero;stroke:none"
         id="path156"
         inkscape:connector-curvature="0" /><path
         d="m 8309.38,317.211 c 2.7,-9.051 84.42,-283.461 89.16,-299.5704 -11.48,0 -36.69,0 -43.82,0 -2.22,8.4297 -16.33,60.9297 -16.33,60.9297 l -96.41,0 c 0,0 -14.35,-52.5312 -16.63,-60.9297 -7.01,0 -30.8,0 -42.15,0 4.86,16.168 87.83,290.5504 90.55,299.5704 6.95,0 28.65,0 35.63,0 z m 5,13.437 -50.58,0 -98.68,-326.42925 70.51,0 c 0,0 14.3,52.56255 16.58,60.91015 8.52,0 67.33,0 75.9,0 2.27,-8.4101 16.32,-60.91015 16.32,-60.91015 l 72.13,0 -97.17,326.42925 -5.01,0"
         style="fill:#231f20;fill-opacity:1;fill-rule:nonzero;stroke:none"
         id="path158"
         inkscape:connector-curvature="0" /><path
         d="m 8272.45,142.809 14.72,61.582 c 1.34,6.328 2.15,12.578 3.34,18.929 4.36,-24.492 9.13,-48.371 14.83,-70.742 0,0 7.75,-29.828 10.77,-41.449 -11.4,0 -40.66,0 -52.13,0 2.83,10.562 8.47,31.68 8.47,31.68 z m 11.62,120.961 c -2.58,-18.54 -6,-37.598 -10.05,-56.559 l -14.56,-61 -12.99,-48.5196 87.01,0 -15.12,58.2306 c -8.53,33.5 -15.6,69.789 -21,107.848 l -13.29,0"
         style="fill:#231f20;fill-opacity:1;fill-rule:nonzero;stroke:none"
         id="path160"
         inkscape:connector-curvature="0" /><path
         d="m 58.9609,1679.68 c 0,491.63 399.0511,891.62 889.5941,891.62 l 7961.525,0 c 490.51,0 889.56,-399.99 889.56,-891.62 0,-491.63 -399.05,-891.621 -889.56,-891.621 l -7961.525,0 c -490.543,0 -889.5941,399.991 -889.5941,891.621"
         style="fill:#fbe819;fill-opacity:1;fill-rule:nonzero;stroke:none"
         id="path162"
         inkscape:connector-curvature="0" /><path
         d="m 58.9609,1679.68 c 0,491.63 399.0511,891.62 889.5941,891.62 l 7961.525,0 c 490.51,0 889.56,-399.99 889.56,-891.62 0,-491.63 -399.05,-891.621 -889.56,-891.621 l -7961.525,0 c -490.543,0 -889.5941,399.991 -889.5941,891.621 z"
         style="fill:none;stroke:#fbe819;stroke-width:30;stroke-linecap:butt;stroke-linejoin:miter;stroke-miterlimit:4;stroke-opacity:1;stroke-dasharray:none"
         id="path164"
         inkscape:connector-curvature="0" /><path
         d="m 84.0273,1683.96 c 0,491.63 399.0467,891.62 889.5897,891.62 l 7961.533,0 c 490.5,0 889.59,-399.99 889.59,-891.62 -0.03,-491.64 -399.09,-891.601 -889.59,-891.601 l -7961.533,0 c -490.543,0 -889.5897,399.961 -889.5897,891.601 z M 973.617,2659.61 C 436.738,2659.61 0,2221.93 0,1683.96 0,1145.99 436.738,708.34 973.617,708.34 l 7961.533,0 c 536.84,0 973.58,437.65 973.58,975.62 0,537.97 -436.74,975.65 -973.58,975.65 l -7961.533,0"
         style="fill:#231f20;fill-opacity:1;fill-rule:nonzero;stroke:none"
         id="path166"
         inkscape:connector-curvature="0" /><path
         d="m 2154.11,2284.78 c 0,0 -214.25,96.95 -525.14,71.68 0,0 -701.661,-29.5 -693.251,-716.6 0,0 -29.406,-670.18 836.061,-674.399 0,0 273.11,4.219 415.95,63.239 l 0,421.51 c 0,0 -113.43,-168.64 -420.14,-168.64 0,0 -390.73,-16.84 -390.73,421.51 0,0 -8.38,333.01 386.54,333.01 0,0 256.3,16.9 390.71,-181.23 l 0,429.92"
         style="fill:#231f20;fill-opacity:1;fill-rule:nonzero;stroke:none"
         id="path168"
         inkscape:connector-curvature="0" /><path
         d="m 3317.96,1675.68 c 0,-474.43 -294.02,-458.9 -294.02,-458.9 -351.71,0 -340.48,422.6 -340.48,422.6 0,471.85 297.69,456.32 297.69,456.32 346.1,0 336.81,-420.02 336.81,-420.02 z m -357.17,697.25 c 0,0 -672.22,25.19 -672.22,-739.47 0,0 -25.22,-684.78 768.81,-684.78 0,0 663.85,-25.25 663.85,743.62 0,0 21,680.63 -760.44,680.63"
         style="fill:#231f20;fill-opacity:1;fill-rule:nonzero;stroke:none"
         id="path170"
         inkscape:connector-curvature="0" /><path
         d="m 5027.89,2284.69 c 0,0 -214.3,96.62 -525.22,71.43 0,0 -701.63,-29.38 -693.23,-714.25 0,0 -29.4,-667.979 836.1,-672.19 0,0 273.07,4.211 415.92,63.03 l 0,420.1 c 0,0 -113.4,-168.02 -420.11,-168.02 0,0 -390.76,-16.85 -390.76,420.11 0,0 -8.38,331.92 386.57,331.92 0,0 256.24,16.81 390.73,-180.65 l 0,428.52"
         style="fill:#231f20;fill-opacity:1;fill-rule:nonzero;stroke:none"
         id="path172"
         inkscape:connector-curvature="0" /><path
         d="m 6095.01,2368.71 0,-470.51 -445.33,0 0,470.51 -457.95,0 0,-1403.249 457.95,0 0,516.759 445.33,0 0,-516.759 457.95,0 0,1403.249 -457.95,0"
         style="fill:#231f20;fill-opacity:1;fill-rule:nonzero;stroke:none"
         id="path174"
         inkscape:connector-curvature="0" /><path
         d="m 7204.18,1430.78 c 0,45.64 33.23,82.7 74.23,82.7 l 448.27,0 2.88,361.26 -448.33,0 c -41,0 -74.26,33.26 -74.26,74.23 0,40.99 33.26,74.23 74.26,74.23 l 449.54,0 0,336.14 -809.47,0 c 0,0 -280.1,2.76 -280.1,-355.75 0,0 -8.41,-229.69 120.42,-330.49 0,0 -109.19,-39.24 -100.84,-375.33 0,0 11.22,-330.52 313.74,-330.52 l 750.64,0 0,358.5 0.18,22.4 -446.93,0 c -41,0 -74.23,37.05 -74.23,82.63"
         style="fill:#231f20;fill-opacity:1;fill-rule:nonzero;stroke:none"
         id="path176"
         inkscape:connector-curvature="0" /><path
         d="m 7894.25,1355.49 0,-389.271 1083.98,0 0,389.271 -520.97,0 518.15,661.03 0,347.31 -1075.55,0 0,-313.69 574.17,0 -579.78,-694.65"
         style="fill:#231f20;fill-opacity:1;fill-rule:nonzero;stroke:none"
         id="path178"
         inkscape:connector-curvature="0" /></g></g></svg>