<?xml version="1.0" encoding="UTF-8" standalone="no"?>
<!-- Created with Inkscape (http://www.inkscape.org/) -->

<svg
   xmlns:dc="http://purl.org/dc/elements/1.1/"
   xmlns:cc="http://creativecommons.org/ns#"
   xmlns:rdf="http://www.w3.org/1999/02/22-rdf-syntax-ns#"
   xmlns:svg="http://www.w3.org/2000/svg"
   xmlns="http://www.w3.org/2000/svg"
   xmlns:sodipodi="http://sodipodi.sourceforge.net/DTD/sodipodi-0.dtd"
   xmlns:inkscape="http://www.inkscape.org/namespaces/inkscape"
   id="svg2"
   version="1.1"
   inkscape:version="0.48.4 r9939"
   width="560"
   height="320"
   xml:space="preserve"
   sodipodi:docname="copa_airlines.ai"><metadata
     id="metadata8"><rdf:RDF><cc:Work
         rdf:about=""><dc:format>image/svg+xml</dc:format><dc:type
           rdf:resource="http://purl.org/dc/dcmitype/StillImage" /><dc:title></dc:title></cc:Work></rdf:RDF></metadata><defs
     id="defs6"><clipPath
       clipPathUnits="userSpaceOnUse"
       id="clipPath16"><path
         d="M 0,612 792,612 792,0 0,0 0,612 z"
         id="path18"
         inkscape:connector-curvature="0" /></clipPath></defs><sodipodi:namedview
     pagecolor="#ffffff"
     bordercolor="#666666"
     borderopacity="1"
     objecttolerance="10"
     gridtolerance="10"
     guidetolerance="10"
     inkscape:pageopacity="0"
     inkscape:pageshadow="2"
     inkscape:window-width="1920"
     inkscape:window-height="1025"
     id="namedview4"
     showgrid="false"
     inkscape:zoom="0.87256052"
     inkscape:cx="281.81877"
     inkscape:cy="352.65154"
     inkscape:window-x="0"
     inkscape:window-y="30"
     inkscape:window-maximized="1"
     inkscape:current-layer="g10" /><g
     id="g10"
     inkscape:groupmode="layer"
     inkscape:label="copa_airlines"
     transform="matrix(1.25,0,0,-1.25,0,320)"><g
       id="g12"
       transform="matrix(0.85811504,0,0,0.85242105,-109.52584,-117.76343)"><g
         id="g14"
         clip-path="url(#clipPath16)"><g
           id="g20"
           transform="translate(644.7979,251.415)"><path
             d="m 0,0 -0.826,0 0,1.329 1.327,0 C 1.062,1.329 1.767,1.231 1.767,0.688 1.767,-0.134 0.641,0 0,0 m 2.482,0.688 c 0,1.107 -0.9,1.366 -1.829,1.366 l -2.206,0 0,-5.189 0.727,0 0,2.392 0.826,0 1.552,-2.392 0.868,0 -1.556,2.392 c 0.917,0.031 1.618,0.397 1.618,1.431"
             style="fill:#0068ac;fill-opacity:1;fill-rule:nonzero;stroke:none"
             id="path22"
             inkscape:connector-curvature="0" /></g><g
           id="g24"
           transform="translate(644.9619,246.8379)"><path
             d="m 0,0 c -2.117,0 -3.977,1.77 -3.977,4.006 0,2.225 1.86,4.008 3.977,4.008 2.165,0 4.028,-1.783 4.028,-4.008 C 4.028,1.77 2.165,0 0,0 m 0,8.658 c -2.602,0 -4.699,-2.02 -4.699,-4.652 0,-2.637 2.097,-4.729 4.699,-4.729 2.646,0 4.748,2.092 4.748,4.729 0,2.632 -2.102,4.652 -4.748,4.652"
             style="fill:#0068ac;fill-opacity:1;fill-rule:nonzero;stroke:none"
             id="path26"
             inkscape:connector-curvature="0" /></g><g
           id="g28"
           transform="translate(334.0225,289.582)"><path
             d="M 0,0 -5.702,12.654 -11.463,0 0,0 z m -11.013,21.576 10.622,0 c 1.855,-3.98 17.13,-36.936 17.13,-36.936 l -9.693,0 -4.01,8.614 -17.596,0 -3.893,-8.623 -9.75,0 17.19,36.945 z"
             style="fill:#0068ac;fill-opacity:1;fill-rule:nonzero;stroke:none"
             id="path30"
             inkscape:connector-curvature="0" /></g><g
           id="g32"
           transform="translate(448.4912,302.8984)"><path
             d="m 0,0 c -6.168,0 -9.145,-3.232 -9.145,-3.232 l -0.511,2.667 -8.285,0 c 0.319,-0.998 0.882,-2.879 0.882,-4.515 l 0,-23.606 8.183,0 0,16.331 c 0,4.44 2.708,6.707 8.876,6.707 3.386,0 5.44,-1.125 5.44,-6.707 l 0,-16.331 8.19,0 0,16.331 C 13.63,-3.955 10.921,0 0,0"
             style="fill:#0068ac;fill-opacity:1;fill-rule:nonzero;stroke:none"
             id="path34"
             inkscape:connector-curvature="0" /></g><g
           id="g36"
           transform="translate(476.7949,291.0781)"><path
             d="m 0,0 c 0.481,3.494 2.054,6.143 8.53,6.143 4.762,0 6.473,-3.051 6.747,-6.143 L 0,0 z m 8.53,11.732 c -13.946,0 -17.055,-6.551 -17.055,-14.558 0,-8.083 3.04,-14.628 17.738,-14.628 5.378,0 10.391,0.997 11.54,1.239 0.216,1.418 0.688,4.535 0.846,5.598 -0.774,-0.08 -7.138,-1.25 -12.386,-1.25 -6.817,0 -8.665,2.594 -9.213,6.21 l 23.601,0 0,2.831 c 0,10.101 -5.378,14.558 -15.071,14.558"
             style="fill:#0068ac;fill-opacity:1;fill-rule:nonzero;stroke:none"
             id="path38"
             inkscape:connector-curvature="0" /></g><g
           id="g40"
           transform="translate(208.5498,279.1758)"><path
             d="m 0,0 c -6.849,0 -8.872,3.391 -8.872,9.042 0,5.571 2.023,8.97 8.872,8.97 6.819,0 8.869,-3.399 8.869,-8.97 C 8.869,3.391 6.819,0 0,0 m 0,23.66 c -10.243,0 -17.067,-4.517 -17.067,-14.618 0,-10.173 6.824,-14.628 17.067,-14.628 10.237,0 17.056,4.455 17.056,14.628 C 17.056,19.143 10.237,23.66 0,23.66"
             style="fill:#0068ac;fill-opacity:1;fill-rule:nonzero;stroke:none"
             id="path42"
             inkscape:connector-curvature="0" /></g><g
           id="g44"
           transform="translate(291.4902,284.8887)"><path
             d="m 0,0 c 0,-5.197 -4.962,-5.649 -9.555,-5.649 -1.57,0 -4.072,0.333 -4.072,3.389 0,2.032 2.773,3.389 6.132,3.389 L 0,1.129 0,0 z m 8.19,8.964 c 0,5.662 -6.065,9.046 -15.001,9.046 -4.607,0 -10.273,-1.787 -12.228,-2.455 -0.189,-1.196 -0.774,-4.91 -0.887,-5.692 1.781,0.395 8.769,2.498 13.115,2.498 C -2.326,12.361 0,10.834 0,8.627 L 0,6.219 c 0,0 -5.512,0.56 -7.495,0.56 -8.941,0 -14.344,-3.209 -14.344,-9.039 0,-7.349 8.143,-8.976 12.284,-8.976 5.609,0 8.533,1.51 9.901,2.757 l 0.469,-2.197 8.217,0 C 8.928,-10.24 8.19,-8.289 8.19,-5.649 l 0,14.613 z"
             style="fill:#0068ac;fill-opacity:1;fill-rule:nonzero;stroke:none"
             id="path46"
             inkscape:connector-curvature="0" /></g><g
           id="g48"
           transform="translate(168.6309,312.2515)"><path
             d="m 0,0 c 9.604,0.008 15.594,-3.019 18.902,-7.822 l -8.587,-3.301 C 8.453,-8.519 5.333,-6.779 0.122,-6.75 l -0.226,0 c -5.132,-0.023 -8.212,-1.66 -10.09,-4.162 -1.647,-2.21 -2.545,-5.03 -2.545,-8.23 l 0,-0.541 -0.006,0 c 0.036,-3.067 0.938,-5.994 2.553,-8.145 1.873,-2.5 4.958,-4.128 10.079,-4.154 l 0.23,0.006 c 5.125,0.02 8.23,1.695 10.1,4.228 l 8.684,-3.314 c -3.324,-4.713 -9.37,-7.6 -18.858,-7.6 l -0.048,0 c -8.441,-0.004 -14.116,2.233 -17.586,6.067 -3.154,3.429 -4.762,8.031 -4.759,13.108 l 0,0.345 c -0.003,4.961 1.611,9.57 4.758,12.997 C -14.124,-2.324 -8.45,0.003 0,0"
             style="fill:#0068ac;fill-opacity:1;fill-rule:nonzero;stroke:none"
             id="path50"
             inkscape:connector-curvature="0" /></g><g
           id="g52"
           transform="translate(406.8457,278.665)"><path
             d="m 0,0 0,32.477 -8.198,0 0,-32.477 c 0,-1.978 0.685,-3.979 0.857,-4.452 l 8.2,0 C 0.735,-3.987 0,-2.073 0,0"
             style="fill:#0068ac;fill-opacity:1;fill-rule:nonzero;stroke:none"
             id="path54"
             inkscape:connector-curvature="0" /></g><g
           id="g56"
           transform="translate(379.458,290.6104)"><path
             d="m 0,0 c 0.033,4.349 3.216,6.64 8.868,6.64 0.935,0 4.64,-0.487 6.236,-0.675 -0.091,0.72 -0.661,4.235 -0.894,5.655 -1.165,0.218 -3.782,0.668 -5.342,0.668 -4.799,0 -7.499,-1.754 -9.007,-3.099 l -0.693,2.534 -8.226,0 C -8.9,11.155 -8.207,9.246 -8.193,7.275 l 0,-23.668 8.193,0 L 0,0 z"
             style="fill:#0068ac;fill-opacity:1;fill-rule:nonzero;stroke:none"
             id="path58"
             inkscape:connector-curvature="0" /></g><g
           id="g60"
           transform="translate(248.8193,279.2051)"><path
             d="m 0,0 c -6.974,0 -8.878,3.959 -8.878,9.041 0.135,5.414 1.904,8.97 8.878,8.97 6.288,0 7.521,-3.95 7.521,-8.97 C 7.521,3.959 6.288,0 0,0 m 0,23.66 c -5.125,0 -9.083,-2.992 -9.083,-2.992 0,0 -0.435,1.662 -0.612,2.426 l -8.245,0 c 0.293,-1.009 0.866,-2.979 0.866,-5.083 l 0,-31.954 8.196,0 0,11.115 c 1.639,-1.197 4.714,-2.758 8.878,-2.758 13.724,0 15.704,6.545 15.704,14.627 0,8.008 -1.98,14.619 -15.704,14.619"
             style="fill:#0068ac;fill-opacity:1;fill-rule:nonzero;stroke:none"
             id="path62"
             inkscape:connector-curvature="0" /></g><g
           id="g64"
           transform="translate(529.9385,301.3975)"><path
             d="m 0,0 0,-6.375 c -1.609,0.862 -3.281,1.516 -5.019,1.956 -1.742,0.438 -3.483,0.658 -5.232,0.658 -1.944,0 -3.415,-0.236 -4.411,-0.71 -0.991,-0.471 -1.486,-1.175 -1.486,-2.106 0,-1.326 2.126,-2.406 6.375,-3.236 l 0.329,-0.075 2.501,-0.5 c 3.181,-0.636 5.508,-1.644 6.985,-3.052 1.482,-1.403 2.219,-3.303 2.219,-5.68 0,-2.877 -1.124,-5.037 -3.38,-6.471 -2.254,-1.433 -5.647,-2.159 -10.173,-2.159 -2.005,0 -4.063,0.149 -6.171,0.442 -2.101,0.293 -4.238,0.716 -6.399,1.303 l 0,6.381 c 1.924,-0.918 3.886,-1.605 5.883,-2.09 1.996,-0.491 3.926,-0.732 5.794,-0.732 2.044,0 3.591,0.254 4.65,0.754 1.052,0.502 1.574,1.216 1.574,2.17 0,0.921 -0.372,1.637 -1.116,2.141 -0.741,0.497 -2.52,1.027 -5.319,1.592 l -2.413,0.446 c -3.335,0.625 -5.768,1.621 -7.302,2.961 -1.524,1.344 -2.29,3.153 -2.29,5.407 0,2.691 1.157,4.783 3.487,6.279 2.324,1.496 5.59,2.239 9.802,2.239 1.885,0 3.766,-0.13 5.646,-0.381 C -3.59,0.903 -1.771,0.515 0,0"
             style="fill:#0068ac;fill-opacity:1;fill-rule:nonzero;stroke:none"
             id="path66"
             inkscape:connector-curvature="0" /></g><g
           id="g68"
           transform="translate(605.0156,254.9551)"><path
             d="m 0,0 c -4.72,1.356 -10.5,1.445 -16.717,0.258 -6.411,-1.221 -13.129,-3.783 -19.439,-7.41 -0.957,-0.551 -1.902,-1.121 -2.825,-1.723 l 49.88,0 c -0.158,0.377 -0.327,0.742 -0.513,1.094 C 8.418,-4.08 4.819,-1.387 0,0"
             style="fill:#0068ac;fill-opacity:1;fill-rule:nonzero;stroke:none"
             id="path70"
             inkscape:connector-curvature="0" /></g><g
           id="g72"
           transform="translate(617.8311,259.2852)"><path
             d="m 0,0 c -2.376,4.458 -6.701,7.701 -12.508,9.367 -5.679,1.639 -12.639,1.747 -20.119,0.319 -7.711,-1.469 -15.801,-4.553 -23.389,-8.918 -5.723,-3.29 -10.946,-7.166 -15.434,-11.436 l 0,-2.537 16.78,0 c 1.955,1.546 4.031,3.002 6.227,4.374 7.861,4.931 16.594,8.251 24.585,9.348 7.917,1.088 14.732,-0.042 19.187,-3.192 3.497,-2.464 5.451,-6.038 5.822,-10.53 l 0.589,0 0.213,2.123 C 2.374,-6.954 1.713,-3.227 0,0"
             style="fill:#0068ac;fill-opacity:1;fill-rule:nonzero;stroke:none"
             id="path74"
             inkscape:connector-curvature="0" /></g><g
           id="g76"
           transform="translate(548.1992,283.2227)"><path
             d="m 0,0 c -0.611,-0.354 -1.22,-0.708 -1.818,-1.072 l 0,-7.102 C 15.47,4.465 34.177,8.86 49.585,9.854 36.604,13.592 17.908,10.297 0,0"
             style="fill:#0068ac;fill-opacity:1;fill-rule:nonzero;stroke:none"
             id="path78"
             inkscape:connector-curvature="0" /></g><g
           id="g80"
           transform="translate(605.4199,291.4316)"><path
             d="m 0,0 c 0.618,-0.518 1.216,-1.063 1.778,-1.645 0,0 4.102,-4.252 5.46,-8.271 l -1.317,2.075 c -2.077,3.285 -5.062,5.83 -8.737,7.637 -16.701,-1.391 -37.913,-6.58 -56.223,-21.694 l 0,-1.145 c 4.899,3.909 10.182,7.311 15.728,10.129 5.93,3.015 11.917,5.245 17.807,6.63 5.918,1.392 11.455,1.87 16.47,1.417 9.637,-0.869 16.545,-5.084 19.993,-12.207 0,0 2.641,-5.35 2.875,-10.783 l -0.744,3.096 c -0.387,1.597 -0.958,3.126 -1.717,4.543 -2.629,4.939 -7.414,8.529 -13.844,10.372 -6.285,1.808 -13.98,1.928 -22.258,0.354 -8.539,-1.633 -17.487,-5.041 -25.878,-9.871 -2.945,-1.688 -5.759,-3.516 -8.432,-5.467 l 0,-16.707 c 2.952,3.077 6.256,5.984 9.891,8.682 5.356,3.984 11.169,7.337 17.271,9.964 12.254,5.279 24.245,6.932 32.898,4.543 8.013,-2.222 12.783,-7.746 13.805,-15.976 0,0 0.549,-5.258 -0.501,-11.028 l 11.091,0 0,44.256 C 22.439,-0.594 12.757,0.776 0,0"
             style="fill:#0068ac;fill-opacity:1;fill-rule:nonzero;stroke:none"
             id="path82"
             inkscape:connector-curvature="0" /></g><g
           id="g84"
           transform="translate(562.8008,307.3691)"><path
             d="m 0,0 c -5.377,-0.92 -10.949,-2.652 -16.42,-5.082 l 0,-2.107 C -9.096,-3.381 -1.744,-0.903 5.255,0.648 3.545,0.525 1.793,0.313 0,0"
             style="fill:#0068ac;fill-opacity:1;fill-rule:nonzero;stroke:none"
             id="path86"
             inkscape:connector-curvature="0" /></g><g
           id="g88"
           transform="translate(546.3809,330.5449)"><path
             d="m 0,0 0,-22.525 c 0,0 9.501,3.279 19.592,1.747 l -4.023,-0.155 C 10.632,-21.116 5.313,-22.259 0,-24.231 l 0,-2.502 c 8.273,3.801 17.995,5.73 26.445,5.137 21.156,3.581 37.999,-0.786 37.999,-0.786 -3.283,0.552 -16.224,2.373 -32.172,-0.04 1.506,-0.349 3.903,-1.065 6.33,-2.481 L 36.63,-24.2 c -1.927,0.689 -4.029,1.177 -6.264,1.47 C 20.758,-24.366 10.189,-27.572 0,-33.501 l 0,-1.247 c 15.356,8.387 31.876,11.529 43.858,7.216 19.188,1.384 33.307,-2.522 33.307,-2.522 -3.221,0.542 -14.683,2.164 -29.453,0.787 0.829,-0.461 4.42,-2.556 5.951,-4.708 l -0.879,0.707 c -1.995,1.6 -4.332,2.872 -6.937,3.818 C 31.921,-30.969 15.329,-35.205 0,-45.419 l 0,-1.155 c 1.316,0.857 2.655,1.684 4.011,2.476 10.962,6.413 22.528,10.327 32.572,11.022 7.894,0.547 14.663,-0.889 19.895,-4.18 15.878,0.319 27.227,-2.739 27.977,-2.947 L 84.455,0 0,0 z"
             style="fill:#0068ac;fill-opacity:1;fill-rule:nonzero;stroke:none"
             id="path90"
             inkscape:connector-curvature="0" /></g><g
           id="g92"
           transform="translate(546.3809,294.252)"><path
             d="M 0,0 0,-4.607 C 13.512,3.434 27.468,7.047 39.733,8.387 28.48,10.164 14.034,7.262 0,0"
             style="fill:#0068ac;fill-opacity:1;fill-rule:nonzero;stroke:none"
             id="path94"
             inkscape:connector-curvature="0" /></g><g
           id="g96"
           transform="translate(419.1104,304.5)"><path
             d="m 0,0 c 1.777,0 2.987,0.242 3.649,0.729 0.656,0.486 0.984,1.37 0.984,2.644 0,1.224 -0.319,2.081 -0.949,2.56 -0.645,0.474 -1.839,0.715 -3.617,0.715 -1.804,0 -3.02,-0.247 -3.669,-0.74 C -4.24,5.411 -4.566,4.524 -4.566,3.247 -4.566,2.022 -4.252,1.176 -3.637,0.708 -3.007,0.236 -1.798,0 0,0 m 4.122,-25.835 0,23.687 -8.191,0 0,-23.687 c 0,-2.098 0.777,-4.163 0.89,-4.452 l 8.165,0 c -0.146,0.531 -0.864,2.432 -0.864,4.452"
             style="fill:#0068ac;fill-opacity:1;fill-rule:nonzero;stroke:none"
             id="path98"
             inkscape:connector-curvature="0" /></g><g
           id="g100"
           transform="translate(358.9375,304.5)"><path
             d="m 0,0 c 1.776,0 2.987,0.242 3.648,0.729 0.656,0.486 0.985,1.37 0.985,2.644 0,1.224 -0.32,2.081 -0.95,2.56 -0.645,0.474 -1.839,0.715 -3.616,0.715 -1.804,0 -3.02,-0.247 -3.67,-0.74 C -4.24,5.411 -4.567,4.524 -4.567,3.247 -4.567,2.022 -4.252,1.176 -3.638,0.708 -3.007,0.236 -1.799,0 0,0 m 4.121,-25.835 0,23.687 -8.19,0 0,-23.687 c 0,-2.098 0.776,-4.163 0.89,-4.452 l 8.165,0 c -0.147,0.531 -0.865,2.432 -0.865,4.452"
             style="fill:#0068ac;fill-opacity:1;fill-rule:nonzero;stroke:none"
             id="path102"
             inkscape:connector-curvature="0" /></g></g></g></g></svg>