<?xml version="1.0" encoding="UTF-8" standalone="no"?>
<!-- Created with Inkscape (http://www.inkscape.org/) -->

<svg
   xmlns:dc="http://purl.org/dc/elements/1.1/"
   xmlns:cc="http://creativecommons.org/ns#"
   xmlns:rdf="http://www.w3.org/1999/02/22-rdf-syntax-ns#"
   xmlns:svg="http://www.w3.org/2000/svg"
   xmlns="http://www.w3.org/2000/svg"
   xmlns:sodipodi="http://sodipodi.sourceforge.net/DTD/sodipodi-0.dtd"
   xmlns:inkscape="http://www.inkscape.org/namespaces/inkscape"
   version="1.1"
   width="560"
   height="320"
   id="svg2"
   xml:space="preserve"
   inkscape:version="0.48.4 r9939"
   sodipodi:docname="deloitte.svg"><sodipodi:namedview
     pagecolor="#ffffff"
     bordercolor="#666666"
     borderopacity="1"
     objecttolerance="10"
     gridtolerance="10"
     guidetolerance="10"
     inkscape:pageopacity="0"
     inkscape:pageshadow="2"
     inkscape:window-width="1920"
     inkscape:window-height="1025"
     id="namedview17"
     showgrid="false"
     inkscape:zoom="0.57427179"
     inkscape:cx="241.175"
     inkscape:cy="95.8125"
     inkscape:window-x="0"
     inkscape:window-y="30"
     inkscape:window-maximized="1"
     inkscape:current-layer="svg2" /><metadata
     id="metadata8"><rdf:RDF><cc:Work
         rdf:about=""><dc:format>image/svg+xml</dc:format><dc:type
           rdf:resource="http://purl.org/dc/dcmitype/StillImage" /><dc:title /></cc:Work></rdf:RDF></metadata><defs
     id="defs6" /><g
     transform="matrix(1.8344423,0,0,-1.9030256,-73.932801,305.89175)"
     id="g10"><g
       transform="scale(0.1,0.1)"
       id="g12"><path
         d="m 1312.54,614.789 c -13.05,-4.434 -26.66,-8.437 -40.27,-11.211 -15.97,-3.242 -32.5,-5.019 -49.3,-5.019 -54.29,0 -96.79,18.066 -103.75,61.093 l 231.61,0 c 1.72,8.262 4.76,28.262 4.76,49.297 0,97.778 -48.65,187.543 -172.77,187.543 -120.58,0 -184.769,-94.551 -184.769,-200.492 0,-122.129 85.389,-191.988 204.599,-191.988 30.36,0 52.55,2.718 70.87,6.437 19.02,3.879 39.97,10.141 57.69,18.071 l -18.67,86.269 z m -131.83,193.988 c 45.9,0 59.77,-41.937 59.77,-64.964 -0.08,0 -123.66,0 -123.73,0 0,32.617 22.67,64.964 63.96,64.964"
         id="path14"
         style="fill:#1e4695;fill-opacity:1;fill-rule:nonzero;stroke:none"
         inkscape:connector-curvature="0" /><path
         d="m 3110.61,614.789 c -13.05,-4.434 -26.66,-8.437 -40.27,-11.211 -15.98,-3.242 -32.5,-5.019 -49.3,-5.019 -54.28,0 -96.78,18.066 -103.73,61.093 l 231.6,0 c 1.72,8.262 4.75,28.262 4.75,49.297 0,97.778 -48.66,187.543 -172.76,187.543 -120.58,0 -184.76,-94.551 -184.76,-200.492 0,-122.129 85.37,-191.988 204.59,-191.988 30.35,0 52.54,2.718 70.88,6.437 19,3.879 39.96,10.141 57.67,18.071 l -18.67,86.269 z m -131.82,193.988 c 45.9,0 59.77,-41.937 59.77,-64.964 -0.08,0 -123.65,0 -123.73,0 0,32.617 22.67,64.964 63.96,64.964"
         id="path16"
         style="fill:#1e4695;fill-opacity:1;fill-rule:nonzero;stroke:none"
         inkscape:connector-curvature="0" /><path
         d="m 1412.32,512.051 125.602,0 0,508.949 -125.602,0 0,-508.949 z"
         id="path18"
         style="fill:#1e4695;fill-opacity:1;fill-rule:nonzero;stroke:none"
         inkscape:connector-curvature="0" /><path
         d="m 1788.46,504.012 c 98.01,0 197.2,61.715 197.2,199.547 0,82.07 -48.62,192.308 -191.05,192.308 -146.62,0 -200.1,-106.82 -200.1,-198.558 0,-115.118 79.94,-193.297 193.95,-193.297 z m 1.69,93.148 c -40.8,0 -67.6,40.332 -67.6,102.707 0,49.688 17.96,102.731 68.03,102.731 48.31,0 65.46,-54.977 65.46,-102.184 0,-62.668 -26.06,-103.254 -65.89,-103.254"
         id="path20"
         style="fill:#1e4695;fill-opacity:1;fill-rule:nonzero;stroke:none"
         inkscape:connector-curvature="0" /><path
         d="m 2040.27,512.051 125.582,0 0,375.563 -125.582,0 0,-375.563 z"
         id="path22"
         style="fill:#1e4695;fill-opacity:1;fill-rule:nonzero;stroke:none"
         inkscape:connector-curvature="0" /><path
         d="m 2040.27,923.328 125.582,0 0,97.5156 -125.582,0 0,-97.5156 z"
         id="path24"
         style="fill:#1e4695;fill-opacity:1;fill-rule:nonzero;stroke:none"
         inkscape:connector-curvature="0" /><path
         d="m 2265.33,989.805 0,-102.141 -48.26,0 0,-93.07 48.26,0 0,-153.86 c 0,-84.617 38.69,-136.394 127.01,-136.394 16.56,0 35.26,1.699 52.49,4.281 15.94,2.391 30.08,5.289 36.27,7.309 0.1,0.101 -0.92,98.097 -0.92,98.457 -4.04,-1.395 -32.52,-6.18 -42.93,-6.18 -10.1,0 -25.11,1.277 -35.83,12.254 -7.66,7.824 -13.14,20.566 -13.14,41.281 l 0,132.852 81.18,0 0,93.07 c 0,0 -70.46,0 -81.18,0 0,11.016 0,115.996 0,115.996 l -122.95,-13.855"
         id="path26"
         style="fill:#1e4695;fill-opacity:1;fill-rule:nonzero;stroke:none"
         inkscape:connector-curvature="0" /><path
         d="m 2555.9,989.805 0,-102.141 -48.26,0 0,-93.07 48.26,0 0,-153.86 c 0,-84.617 38.69,-136.394 127.02,-136.394 16.56,0 35.25,1.699 52.46,4.281 15.95,2.391 30.09,5.289 36.29,7.309 0.09,0.101 -0.92,98.097 -0.92,98.457 -4.05,-1.395 -32.5,-6.18 -42.93,-6.18 -10.1,0 -25.1,1.277 -35.82,12.254 -7.66,7.824 -13.13,20.566 -13.13,41.281 l 0,132.852 81.15,0 0,93.07 c 0,0 -70.44,0 -81.15,0 0,11.016 0,115.996 0,115.996 L 2555.9,989.805"
         id="path28"
         style="fill:#1e4695;fill-opacity:1;fill-rule:nonzero;stroke:none"
         inkscape:connector-curvature="0" /><path
         d="m 3207.74,573.371 c 0,38.359 31.11,69.453 69.47,69.453 38.36,0 69.49,-31.094 69.49,-69.453 0,-38.387 -31.13,-69.48 -69.49,-69.48 -38.36,0 -69.47,31.093 -69.47,69.48"
         id="path30"
         style="fill:#8cd133;fill-opacity:1;fill-rule:nonzero;stroke:none"
         inkscape:connector-curvature="0" /><path
         d="m 693.734,612.895 c -5.218,-0.43 -13.066,-0.625 -18.093,-0.625 l -39.825,0 c 0.059,0.039 0,312.777 0,312.777 13.774,1.23 31.27,2.051 42.969,2.051 73.012,0 150.809,-47.371 150.809,-156.793 0,-114.149 -73.114,-152.235 -135.86,-157.41 z M 512.051,511.5 l 142.129,0 c 9.625,0 21.254,0.23 30.375,0.699 194.523,10.051 275.461,125.176 275.461,258.106 0,166.05 -111.993,259.065 -305.282,259.065 -49.601,0 -93.703,-1.69 -142.683,-5.82 l 0,-512.05"
         id="path32"
         style="fill:#1e4695;fill-opacity:1;fill-rule:nonzero;stroke:none"
         inkscape:connector-curvature="0" /></g></g></svg>