<?xml version="1.0" encoding="UTF-8" standalone="no"?>
<!-- Created with Inkscape (http://www.inkscape.org/) -->

<svg
   xmlns:dc="http://purl.org/dc/elements/1.1/"
   xmlns:cc="http://creativecommons.org/ns#"
   xmlns:rdf="http://www.w3.org/1999/02/22-rdf-syntax-ns#"
   xmlns:svg="http://www.w3.org/2000/svg"
   xmlns="http://www.w3.org/2000/svg"
   version="1.1"
   width="560"
   height="320"
   id="svg2"
   xml:space="preserve"><metadata
     id="metadata8"><rdf:RDF><cc:Work
         rdf:about=""><dc:format>image/svg+xml</dc:format><dc:type
           rdf:resource="http://purl.org/dc/dcmitype/StillImage" /><dc:title></dc:title></cc:Work></rdf:RDF></metadata><defs
     id="defs6"><clipPath
       id="clipPath20"><path
         d="M 0,360 360,360 360,0 0,0 0,360 z"
         id="path22" /></clipPath></defs><g
     transform="matrix(1.25,0,0,-1.25,0,320)"
     id="g10"><path
       d="m 103.24517,104.38315 -95.243681,0 0,95.61621 95.243681,0 0,-95.61621 z"
       id="path12"
       style="fill:#324a73;fill-opacity:1;fill-rule:nonzero;stroke:none" /><path
       d="m 399.53494,105.89041 -292.08946,0 0,26.10159 292.08946,0 0,-26.10159 z"
       id="path14"
       style="fill:#324a73;fill-opacity:1;fill-rule:nonzero;stroke:none" /><g
       transform="matrix(1.2876509,0,0,1.2926698,-7.7773856,-104.68033)"
       id="g16"><g
         clip-path="url(#clipPath20)"
         id="g18"><g
           transform="translate(167.6494,172.5371)"
           id="g24"><path
             d="m 0,0 c 1.342,1.703 2.673,3.381 2.673,3.381 0,0 1.357,-1.674 2.742,-3.381 L 0,0 z m 7.344,-4.461 6.033,0 c 0,0 -1.47,0.34 -2.149,1.102 C 10.543,-2.6 4.615,4.719 4.615,4.719 l -4.566,0 c 0,0 1.154,-0.184 0.736,-0.893 C 0.364,3.119 -4.409,-2.705 -5.04,-3.438 -5.669,-4.172 -6.928,-4.461 -6.928,-4.461 l 5.245,0 c 0,0 -1.52,0.236 -0.995,0.998 0.196,0.287 1.006,1.328 1.937,2.516 l 6.923,0 C 7.183,-2.184 8.064,-3.271 8.288,-3.543 8.865,-4.252 7.344,-4.461 7.344,-4.461"
             id="path26"
             style="fill:#ffffff;fill-opacity:1;fill-rule:nonzero;stroke:none" /></g><g
           transform="translate(110.3994,169.1504)"
           id="g28"><path
             d="m 0,0 -3.684,0 0,3.518 2.725,0 c 2.722,0 4.537,-0.815 4.537,-1.76 C 3.578,0.812 2.19,0 0,0 m -3.684,7.187 2.725,0 c 0.639,0 2.722,-0.158 2.722,-1.234 0,-1.074 -1.922,-1.492 -3.364,-1.492 l -2.083,0 0,2.726 z M 2.242,4.301 c 0,0 2.511,0.316 2.511,1.888 0,1.575 -3.042,1.916 -4.699,1.916 l -7.957,0 c 0,0 1.229,-0.236 1.229,-0.867 l 0,-7.34 c 0,-0.603 -0.482,-0.71 -1.229,-0.972 l 7.798,0 c 3.363,0 6.674,1.179 6.674,2.859 0,1.678 -1.975,2.229 -4.327,2.516"
             id="path30"
             style="fill:#ffffff;fill-opacity:1;fill-rule:nonzero;stroke:none" /></g><g
           transform="translate(223.8818,177.2559)"
           id="g32"><path
             d="m 0,0 4.319,0 11.33,-6.9 0,5.722 c 0,0.561 -1.57,1.178 -1.57,1.178 l 5.218,0 c 0,0 -1.629,-0.506 -1.629,-1.402 0,-0.899 0.226,-7.778 0.226,-7.778 l -2.019,0 -12.062,7.328 c 0,0 -0.055,-5.271 -0.055,-6.056 0,-0.787 1.738,-1.272 1.738,-1.272 L 0,-9.18 c 0,0 1.513,0.655 1.513,1.721 l 0,6.113 C 1.513,-0.617 0,0 0,0"
             id="path34"
             style="fill:#ffffff;fill-opacity:1;fill-rule:nonzero;stroke:none" /></g><g
           transform="translate(286.7617,177.2559)"
           id="g36"><path
             d="m 0,0 5.72,0 c 0,0 -1.459,-0.561 -1.459,-1.906 0,-1.348 0.058,-4.715 0.058,-5.723 0,-1.01 1.401,-1.551 1.401,-1.551 l -5.72,0 c 0,0 1.29,0.428 1.29,1.44 0,1.01 -0.112,5.383 -0.112,6.338 C 1.178,-0.449 0,0 0,0"
             id="path38"
             style="fill:#ffffff;fill-opacity:1;fill-rule:nonzero;stroke:none" /></g><g
           transform="translate(296.0732,177.2559)"
           id="g40"><path
             d="m 0,0 5.271,0 -6.618,-4.094 c 0,0 4.712,-2.863 5.777,-3.592 1.067,-0.728 3.422,-1.494 3.422,-1.494 l -5.664,0 -7.213,4.592 c 0,0 4.686,3.129 5.471,3.69 C 1.233,-0.336 0,0 0,0"
             id="path42"
             style="fill:#ffffff;fill-opacity:1;fill-rule:nonzero;stroke:none" /></g><g
           transform="translate(287.2666,233.2358)"
           id="g44"><path
             d="m 0,0 11.218,0 c 0,0 -2.468,-1.01 -2.468,-5.048 l 0,-29.617 3.701,0 c 5.833,0 8.75,-1.795 15.37,3.366 l -3.478,-7.965 -24.343,0 c 0,0 2.691,1.683 2.691,4.261 l 0,30.517 C 2.691,-2.357 0,0 0,0"
             id="path46"
             style="fill:#324a73;fill-opacity:1;fill-rule:nonzero;stroke:none" /></g><g
           transform="translate(132.8975,233.2358)"
           id="g48"><path
             d="m 0,0 11.22,0 c 0,0 -2.468,-1.01 -2.468,-5.048 l 0,-29.617 3.702,0 c 5.833,0 8.749,-1.795 15.37,3.366 l -3.478,-7.965 -24.346,0 c 0,0 2.693,1.683 2.693,4.261 l 0,30.517 C 2.693,-2.357 0,0 0,0"
             id="path50"
             style="fill:#324a73;fill-opacity:1;fill-rule:nonzero;stroke:none" /></g><g
           transform="translate(256.7578,213.0439)"
           id="g52"><path
             d="m 0,0 c 2.868,7.287 5.715,14.469 5.715,14.469 0,0 2.901,-7.159 5.864,-14.469 L 0,0 z m 15.698,-19.072 12.903,0 c 0,0 -3.142,1.457 -4.599,4.71 -1.46,3.255 -14.137,34.554 -14.137,34.554 l -9.76,0 c 0,0 2.468,-0.785 1.57,-3.814 -0.895,-3.029 -11.107,-27.934 -12.45,-31.076 -1.347,-3.142 -4.038,-4.374 -4.038,-4.374 l 11.217,0 c 0,0 -3.253,1.009 -2.132,4.261 0.423,1.226 2.153,5.687 4.143,10.771 l 14.801,0 c 2.138,-5.284 4.027,-9.94 4.502,-11.107 1.233,-3.027 -2.02,-3.925 -2.02,-3.925"
             id="path54"
             style="fill:#324a73;fill-opacity:1;fill-rule:nonzero;stroke:none" /></g><g
           transform="translate(226.2383,198.5713)"
           id="g56"><path
             d="m 0,0 -7.741,0 0,15.032 5.72,0 c 5.723,0 9.538,-3.479 9.538,-7.516 C 7.517,3.476 4.597,0 0,0 m -7.741,30.738 5.72,0 c 1.347,0 5.723,-0.673 5.723,-5.272 0,-4.601 -4.04,-6.394 -7.069,-6.394 l -4.374,0 0,11.666 z M 4.71,18.397 c 0,0 5.273,1.347 5.273,8.078 0,6.73 -6.394,8.19 -9.873,8.19 l -16.714,0 c 0,0 2.579,-1.011 2.579,-3.702 l 0,-31.412 c 0,-2.58 -1.008,-3.029 -2.579,-4.15 l 16.378,0 c 7.068,0 14.024,5.045 14.024,12.228 0,7.18 -4.151,9.534 -9.088,10.768"
             id="path58"
             style="fill:#324a73;fill-opacity:1;fill-rule:nonzero;stroke:none" /></g><g
           transform="translate(184.3916,196.8862)"
           id="g60"><path
             d="m 0,0 c -8.487,0 -15.37,7.636 -15.37,17.053 0,9.416 6.883,17.052 15.37,17.052 8.488,0 15.37,-7.636 15.37,-17.052 C 15.37,7.636 8.488,0 0,0 m 0,37.807 c -12.081,0 -21.875,-9.291 -21.875,-20.754 0,-11.461 9.794,-20.755 21.875,-20.755 12.082,0 21.875,9.294 21.875,20.755 0,11.463 -9.793,20.754 -21.875,20.754"
             id="path62"
             style="fill:#324a73;fill-opacity:1;fill-rule:nonzero;stroke:none" /></g><g
           transform="translate(129.1963,194.9805)"
           id="g64"><path
             d="m 0,0 0,14.359 c 0,1.347 0.898,4.599 0.898,4.599 l -9.311,0 c 0,0 2.693,-1.121 2.693,-4.26 0,-3.142 0.223,-11.22 0.223,-11.22 0,0 -1.347,-1.234 -9.088,-1.234 -7.739,0 -16.827,5.161 -16.827,16.714 0,11.556 7.854,16.045 16.381,16.045 8.523,0 11.33,-3.814 11.33,-3.814 l 0,7.066 c 0,0 -4.825,1.457 -9.031,1.457 -13.912,0 -25.188,-9.29 -25.188,-20.754 0,-13.571 9.315,-20.754 25.188,-20.754 C -6.281,-1.796 0,0 0,0"
             id="path66"
             style="fill:#324a73;fill-opacity:1;fill-rule:nonzero;stroke:none" /></g><g
           transform="translate(48.8887,202.437)"
           id="g68"><path
             d="m 0,0 3.351,-13.641 14.52,3.396 C 19.038,-18.123 14.095,-23.398 6.38,-25.205 4.794,-25.576 3.266,-25.714 1.79,-25.679 L -8.26,15.237 c 1.224,0.631 2.573,1.136 4.056,1.485 7.17,1.677 12.584,1.906 16.601,-3.899 l 18.123,4.24 C 21.282,31.299 9.979,35.87 -7.062,31.881 c -1.71,-0.4 -3.352,-0.884 -4.932,-1.433 -18.805,-6.518 -28.27,-23.197 -23.356,-43.217 4.8,-19.543 21.145,-30.205 40.729,-27.531 1.457,0.199 2.927,0.465 4.415,0.814 11.435,2.676 20.528,9.016 25.004,19.712 4.037,9.75 2.717,18.248 0.506,28.034 L 0,0 z"
             id="path70"
             style="fill:#ffffff;fill-opacity:1;fill-rule:nonzero;stroke:none" /></g><g
           transform="translate(13.5391,189.668)"
           id="g72"><path
             d="M 0,0 C 4.8,-19.543 21.145,-30.205 40.729,-27.531 L 37.14,-12.91 27.09,28.006 23.355,43.217 C 4.551,36.699 -4.914,20.021 0,0"
             id="path74"
             style="fill:#cfd9e6;fill-opacity:1;fill-rule:nonzero;stroke:none" /></g><g
           transform="translate(36.8945,232.8848)"
           id="g76"><path
             d="m 0,0 c -18.805,-6.518 -28.27,-23.196 -23.355,-43.217 4.312,-17.547 17.93,-27.937 34.844,-27.937 1.921,0 3.886,0.133 5.884,0.406 L 13.784,-56.127 3.734,-15.211 0,0 z m -1.575,-2.994 3.132,-12.751 10.047,-40.917 2.981,-12.129 c -1.044,-0.078 -2.078,-0.119 -3.096,-0.119 -16.176,0 -28.69,10.053 -32.664,26.229 -2.26,9.202 -1.372,17.866 2.571,25.059 3.544,6.466 9.4,11.489 17.029,14.628"
             id="path78"
             style="fill:#ffffff;fill-opacity:1;fill-rule:nonzero;stroke:none" /></g><g
           transform="translate(52.2803,162.082)"
           id="g80"><path
             d="m 0,0 c -0.768,0.443 -18.864,11.109 -23.855,31.431 -4.998,20.346 6.348,37.274 6.835,37.984 l 1.852,-1.265 C -15.278,67.983 -26.429,51.315 -21.676,31.965 -16.912,12.563 0.943,2.043 1.123,1.941 L 0,0 z"
             id="path82"
             style="fill:#ffffff;fill-opacity:1;fill-rule:nonzero;stroke:none" /></g><g
           transform="translate(14.7344,188.8369)"
           id="g84"><path
             d="M 0,0 -0.51,2.186 29.524,9.211 30.035,7.028 0,0 z"
             id="path86"
             style="fill:#ffffff;fill-opacity:1;fill-rule:nonzero;stroke:none" /></g><g
           transform="translate(26.9756,170.1309)"
           id="g88"><path
             d="M 0,0 -1.812,1.326 C 7.197,13.641 20.885,12.46 21.465,12.403 L 21.249,10.172 C 21.118,10.183 8.236,11.257 0,0"
             id="path90"
             style="fill:#ffffff;fill-opacity:1;fill-rule:nonzero;stroke:none" /></g><g
           transform="translate(25.7188,209.3501)"
           id="g92"><path
             d="M 0,0 C -3.196,0 -6.706,0.559 -10.322,2.085 L -9.45,4.153 C 2.639,-0.949 13.79,5.969 13.899,6.038 L 15.103,4.147 C 14.746,3.919 8.464,0 0,0"
             id="path94"
             style="fill:#ffffff;fill-opacity:1;fill-rule:nonzero;stroke:none" /></g><g
           transform="translate(213.2236,139.4473)"
           id="g96"><path
             d="M 0,0 C 0.229,-0.246 0.454,-0.492 0.682,-0.738 1.749,0.086 2.96,0.793 3.819,1.797 4.204,2.244 3.886,3.295 3.886,4.072 3.573,4.158 3.26,4.244 2.947,4.33 1.965,2.889 0.982,1.443 0,0 m -1.096,-2.334 c 0.321,-1.248 0.278,-2.65 0.909,-3.094 0.666,-0.472 2.144,-0.359 2.978,0.069 3.85,1.97 7.459,4.168 7.543,9.339 0.021,1.127 1.075,2.237 1.652,3.354 0.416,-0.154 0.836,-0.309 1.254,-0.465 -0.551,-2.113 -1.099,-4.23 -1.795,-6.898 1.719,2.201 3.05,3.974 4.463,5.685 0.536,0.649 1.191,1.256 1.914,1.67 0.464,0.266 1.218,0.32 1.711,0.131 0.27,-0.105 0.505,-1.021 0.341,-1.381 C 19.617,5.527 19.066,5.047 18.53,4.703 17.584,4.098 16.198,3.865 15.629,3.037 13.836,0.428 12.379,-2.408 10.691,-5.098 10.234,-5.822 9.422,-6.32 8.77,-6.924 c -0.059,0.84 -0.133,1.68 -0.172,2.52 -0.013,0.297 0.067,0.599 0.095,0.847 C 6.569,-4.846 4.57,-6.346 2.347,-7.34 c -3.286,-1.465 -4.599,-0.758 -5.821,2.488 -1.487,-1.171 -2.882,-2.539 -4.519,-3.486 -2.124,-1.223 -3.704,-0.275 -3.778,2.176 -0.051,1.67 0.223,3.348 0.372,5.279 -2.607,-2.996 -5.089,-5.844 -7.57,-8.691 -0.342,0.176 -0.682,0.347 -1.023,0.521 0.597,2.866 1.197,5.733 1.798,8.598 -0.095,0.103 -0.19,0.205 -0.285,0.309 -2.683,-3.387 -5.369,-6.772 -8.054,-10.159 -0.249,0.114 -0.498,0.227 -0.747,0.338 -0.159,1.154 -0.316,2.313 -0.474,3.471 -1.878,-1.348 -3.663,-2.826 -5.634,-3.992 -1.841,-1.096 -3.778,-0.014 -3.37,1.998 0.793,3.916 1.539,7.945 4.207,11.185 0.256,0.311 0.751,0.428 1.844,1.018 -0.346,-1.408 -0.456,-2.221 -0.746,-2.969 -0.893,-2.312 -1.894,-4.588 -2.763,-6.908 -0.274,-0.731 -0.266,-1.57 -0.485,-3.004 4,2.029 6.985,4.191 8.635,7.791 0.504,1.106 0.466,2.451 0.92,3.596 0.288,0.728 1.019,1.281 1.552,1.916 0.208,-0.867 0.726,-1.799 0.565,-2.588 -0.357,-1.734 -1.077,-3.393 -1.604,-5.092 -0.177,-0.57 -0.215,-1.185 -0.367,-2.076 3.23,3.738 6.254,7.234 9.278,10.73 0.308,-0.177 0.617,-0.357 0.924,-0.537 0.559,-3.236 -1.931,-5.924 -2.212,-9.697 2.576,3.033 4.764,5.609 6.947,8.186 0.354,0.414 0.624,0.968 1.067,1.22 0.508,0.283 1.167,0.307 1.765,0.446 0.018,-0.622 0.212,-1.303 0.026,-1.854 -0.806,-2.391 -1.815,-4.719 -2.545,-7.127 -0.205,-0.674 0.287,-1.558 0.459,-2.35 0.774,0.198 1.818,0.147 2.283,0.639 1.737,1.846 3.345,3.822 4.884,5.844 C -0.77,1.654 0.323,3.637 1.757,5.338 2.214,5.879 3.514,6.166 4.225,5.937 5.663,5.479 6.743,4.537 6.251,2.635 5.527,-0.17 2.816,-2.236 -1.096,-2.334"
             id="path98"
             style="fill:#373535;fill-opacity:1;fill-rule:evenodd;stroke:none" /></g><g
           transform="translate(298.7666,146.4238)"
           id="g100"><path
             d="M 0,0 C 2.367,0.02 3.573,0.924 4.184,2.549 4.351,2.99 3.955,3.641 3.819,4.193 3.353,4.043 2.703,4.035 2.455,3.715 1.639,2.662 0.97,1.496 0,0 M 17.266,3.889 C 15.231,1.096 13.228,-1.717 11.152,-4.477 10.609,-5.193 9.832,-5.736 9.162,-6.359 9.083,-5.5 9.001,-4.643 8.929,-3.783 8.908,-3.559 8.926,-3.33 8.926,-3.092 6.964,-4.363 5.127,-5.754 3.113,-6.795 1.479,-7.641 -0.465,-8.391 -2.111,-6.891 -3.64,-5.496 -3.461,-3.525 -2.655,-1.9 -1.365,0.705 0.177,3.207 1.798,5.623 2.447,6.596 3.416,6.98 4.786,6.076 6.056,5.234 6.767,4.576 6.361,2.98 5.625,0.084 3.362,-1.664 -0.842,-2.072 c 0.254,-1.09 0.18,-2.502 0.829,-3.043 0.582,-0.49 2.121,-0.346 2.96,0.07 3.735,1.852 7.144,4.068 7.97,8.686 0.213,1.191 0.771,2.382 1.429,3.408 0.302,0.472 1.225,0.541 1.87,0.797 C 14.213,7.195 14.39,6.477 14.169,5.91 13.426,3.996 12.541,2.143 11.442,-0.346 c 3.214,3.008 5.862,5.522 8.563,7.977 0.364,0.334 0.979,0.392 1.48,0.58 0.048,-0.637 0.297,-1.336 0.111,-1.889 -0.916,-2.703 -2.04,-5.34 -2.879,-8.06 -0.231,-0.75 0.285,-1.725 0.457,-2.598 0.818,0.27 1.837,0.318 2.422,0.85 2.457,2.216 4.97,4.455 5.65,8.041 -1.018,0.06 -1.891,0.105 -2.766,0.154 -0.06,0.186 -0.125,0.369 -0.186,0.553 0.566,0.379 1.105,1.025 1.703,1.082 1.886,0.181 2.58,1.336 3.045,2.955 0.356,1.252 0.874,2.484 1.511,3.619 0.205,0.361 1.02,0.379 1.556,0.557 0.08,-0.498 0.344,-1.057 0.205,-1.479 -0.484,-1.451 -1.11,-2.853 -1.813,-4.598 2.548,0.256 4.748,0.477 6.952,0.7 C 37.517,7.859 37.576,7.619 37.64,7.377 35.736,6.83 33.861,6.053 31.917,5.805 30.032,5.564 29.216,4.631 28.816,2.953 28.473,1.523 27.962,0.131 27.672,-1.309 c -0.287,-1.416 0.259,-2.212 1.777,-1.517 1.527,0.697 2.984,1.549 4.479,2.336 -0.654,-1.967 -5.343,-5.315 -7.125,-4.817 -0.916,0.256 -1.614,1.297 -2.563,2.116 -0.785,-0.655 -1.893,-1.86 -3.256,-2.604 -0.894,-0.486 -2.444,-0.764 -3.172,-0.303 -0.757,0.481 -1.278,1.996 -1.198,3.006 0.174,2.213 0.79,4.391 1.226,6.58 -0.195,0.133 -0.385,0.268 -0.574,0.401"
             id="path102"
             style="fill:#373535;fill-opacity:1;fill-rule:evenodd;stroke:none" /></g><g
           transform="translate(268.0439,147.8711)"
           id="g104"><path
             d="M 0,0 C -3.014,-1.256 -6.228,-6.721 -5.707,-9.477 -2.686,-7.822 0.411,-2.799 0,0 M 9.476,-3.137 C 8.108,-6.77 5.703,-9.592 2.201,-11.338 c -0.513,-0.254 -1.936,0.582 -2.455,1.277 -0.541,0.727 -0.494,1.887 -0.762,3.102 -1.225,-1.357 -2.247,-2.727 -3.513,-3.805 -0.809,-0.687 -2.027,-1.353 -2.973,-1.25 -0.621,0.071 -1.086,1.537 -1.686,2.479 -1.084,-0.772 -2.396,-1.844 -3.842,-2.678 -0.726,-0.418 -2.109,-0.834 -2.468,-0.492 -0.6,0.572 -0.9,1.783 -0.813,2.678 0.162,1.681 0.5,3.4 1.093,4.98 1.775,4.719 3.66,9.391 5.633,14.027 0.303,0.715 1.295,1.135 1.973,1.692 -0.047,-0.922 0.137,-1.936 -0.175,-2.756 -1.903,-4.994 -3.955,-9.93 -5.869,-14.922 -0.407,-1.066 -0.439,-2.277 -0.354,-3.539 3.542,1.516 5.912,4.119 8.164,6.854 1.034,1.255 1.94,2.623 3.017,3.841 1.6,1.807 3.425,2.944 6.057,1.055 C 2.976,0.422 2.586,-0.475 2.406,-1.408 2.004,-3.52 1.542,-5.641 1.422,-7.777 1.321,-9.543 2.476,-9.805 3.65,-8.723 c 1.419,1.305 2.653,2.817 3.941,4.262 0.495,0.555 0.929,1.166 1.388,1.752 0.166,-0.145 0.333,-0.285 0.497,-0.428"
             id="path106"
             style="fill:#373535;fill-opacity:1;fill-rule:evenodd;stroke:none" /></g><g
           transform="translate(284.8789,139.7949)"
           id="g108"><path
             d="M 0,0 C 2.896,3.404 5.472,6.43 8.129,9.551 4.31,10.793 -0.82,5.043 0,0 M 5.104,3.643 C 3.44,1.943 1.837,0.17 0.066,-1.416 -0.459,-1.891 -1.69,-2.23 -2.159,-1.936 -2.69,-1.6 -2.963,-0.475 -2.942,0.299 -2.832,4.508 2.87,11.424 6.959,12.283 7.68,12.434 8.727,12.229 9.253,11.768 9.663,11.41 9.712,10.34 9.548,9.682 8.942,7.252 8.034,4.896 7.508,2.453 6.492,-2.26 5.549,-6.977 2.643,-10.996 c -2.363,-3.27 -5.423,-5.059 -9.574,-4.34 -0.618,0.106 -1.244,0.494 -1.711,0.926 -0.118,0.103 0.264,1.129 0.616,1.283 0.611,0.266 1.608,0.506 2.029,0.195 2.132,-1.584 4.111,-0.841 5.341,0.819 1.802,2.441 3.327,5.176 4.478,7.986 0.954,2.326 1.203,4.941 1.762,7.43 -0.159,0.111 -0.317,0.226 -0.48,0.34"
             id="path110"
             style="fill:#373535;fill-opacity:1;fill-rule:evenodd;stroke:none" /></g><g
           transform="translate(155.6475,143.4844)"
           id="g112"><path
             d="m 0,0 c -0.949,-0.324 -1.9,-0.646 -2.853,-0.971 -0.156,0.237 -0.315,0.471 -0.474,0.709 0.726,0.655 1.434,1.326 2.181,1.957 0.925,0.78 1.873,1.534 2.829,2.27 0.29,0.226 0.723,0.582 0.962,0.504 C 4.792,3.736 7.066,3.18 8.968,2.02 9.876,1.459 10.551,-0.326 10.471,-1.496 10.242,-4.873 4.182,-9.252 -0.054,-8.781 c 1.241,0.994 2.05,1.701 2.919,2.328 1.378,0.992 3.009,1.738 4.122,2.961 0.685,0.756 1.131,2.469 0.726,3.269 C 7.277,0.641 5.743,1.309 4.661,1.354 4.012,1.385 2.999,0.174 2.676,-0.678 1.268,-4.369 0.039,-8.127 -1.221,-11.873 c -0.261,-0.781 -0.375,-1.615 -0.618,-2.69 1.413,-0.109 2.591,-0.197 3.766,-0.287 0.061,-0.263 0.125,-0.527 0.189,-0.789 -2.239,-0.629 -4.466,-1.314 -6.733,-1.816 -0.357,-0.08 -1.052,0.609 -1.285,1.09 -0.116,0.238 0.431,0.836 0.731,1.23 0.32,0.422 0.874,0.737 1.026,1.199 1.462,4.491 2.863,9.002 4.266,13.512 C 0.159,-0.305 0.044,-0.139 0,0"
             id="path114"
             style="fill:#373535;fill-opacity:1;fill-rule:evenodd;stroke:none" /></g><g
           transform="translate(337.0195,150.0195)"
           id="g116"><path
             d="M 0,0 C 0.262,-0.271 0.523,-0.549 0.782,-0.822 1.829,0.111 2.96,0.973 3.863,2.029 4.119,2.332 3.709,3.207 3.602,3.816 3.086,3.619 2.391,3.568 2.093,3.197 1.303,2.203 0.685,1.076 0,0 m -1.208,-2.326 c 0.397,-1.293 0.423,-2.826 1.11,-3.229 0.767,-0.449 2.355,-0.213 3.2,0.33 2.641,1.698 5.098,3.682 7.626,5.553 C 10.681,0.082 10.72,-0.396 10.504,-0.707 8.101,-4.195 5.005,-6.799 0.828,-7.859 -1.749,-8.514 -3.345,-7.314 -3.25,-4.693 -3.099,-0.41 -0.952,2.963 2.175,5.703 2.601,6.078 3.74,5.729 4.527,5.592 5.938,5.344 6.358,4.396 6.213,3.037 5.89,0.029 2.973,-2.303 -1.208,-2.326"
             id="path118"
             style="fill:#373535;fill-opacity:1;fill-rule:evenodd;stroke:none" /></g><g
           transform="translate(233.5566,136.6426)"
           id="g120"><path
             d="M 0,0 C 1.104,-0.621 1.737,-1.295 2.239,-1.207 4.614,-0.785 7.727,5.186 6.852,7.41 6.4,8.564 5.489,8.969 4.789,7.934 3.163,5.547 1.783,2.988 0,0 M 9.353,6.514 C 9.055,2.674 5.481,-2.119 1.922,-3.184 c -2.283,-0.675 -3.843,0.473 -3.401,2.803 0.351,1.861 1.159,3.652 1.903,5.416 0.59,1.406 1.249,2.832 2.143,4.049 0.639,0.869 1.678,1.48 2.622,2.074 C 6.862,12.205 7.093,10.406 7.678,9.66 8.401,8.742 8.812,7.576 9.353,6.514"
             id="path122"
             style="fill:#373535;fill-opacity:1;fill-rule:evenodd;stroke:none" /></g><g
           transform="translate(170.4639,141.5527)"
           id="g124"><path
             d="m 0,0 c -0.536,-2.078 -1.072,-4.156 -1.768,-6.857 1.713,2.197 2.994,3.912 4.361,5.556 0.588,0.705 1.282,1.383 2.065,1.844 0.444,0.262 1.2,0.18 1.734,0.006 0.22,-0.074 0.438,-0.899 0.29,-1.201 -0.278,-0.569 -0.921,-1.483 -1.24,-1.412 -1.949,0.4 -2.728,-1.03 -3.464,-2.204 -1.686,-2.683 -3.13,-5.517 -4.767,-8.24 -0.328,-0.549 -1.062,-0.851 -1.607,-1.269 -0.155,0.672 -0.535,1.388 -0.421,2.011 0.556,3.049 1.159,6.094 1.936,9.094 0.292,1.127 1.106,2.123 1.68,3.178 C -0.801,0.338 -0.4,0.166 0,0"
             id="path126"
             style="fill:#373535;fill-opacity:1;fill-rule:evenodd;stroke:none" /></g><g
           transform="translate(184.0664,149.5176)"
           id="g128"><path
             d="m 0,0 0,-4.24 c -2.07,0.22 -2.201,1.619 -2.006,2.859 0.103,0.662 0.975,1.203 1.5,1.801 C -0.336,0.281 -0.17,0.141 0,0"
             id="path130"
             style="fill:#373535;fill-opacity:1;fill-rule:evenodd;stroke:none" /></g></g></g></g></svg>